/* XPM */
static char *result[] = {
/* columns rows colors chars-per-pixel */
"50 50 118 2 ",
"   c black",
".  c #010001",
"X  c #010101",
"o  c #020202",
"O  c #020203",
"+  c #020303",
"@  c gray1",
"#  c #030304",
"$  c #040305",
"%  c #040405",
"&  c #040406",
"*  c #050507",
"=  c #060607",
"-  c #060608",
";  c #060609",
":  c #070709",
">  c #07070A",
",  c #08080A",
"<  c #08080B",
"1  c #08090B",
"2  c #09090C",
"3  c #0A090C",
"4  c #0A0A0C",
"5  c #0A0A0D",
"6  c #0A0B0F",
"7  c #0B0B0F",
"8  c #0B0C10",
"9  c #0D0F13",
"0  c #0E0F13",
"q  c #0D0F14",
"w  c #0E0F14",
"e  c #0F0F14",
"r  c #0F1014",
"t  c #0E1015",
"y  c #0F1015",
"u  c #101016",
"i  c #101116",
"p  c #111116",
"a  c #101117",
"s  c #111117",
"d  c #121117",
"f  c #111319",
"g  c #131218",
"h  c #131219",
"j  c #13141B",
"k  c #14141B",
"l  c #15151B",
"z  c #15151C",
"x  c #15151D",
"c  c #16151D",
"v  c #15161D",
"b  c #16161D",
"n  c #16161E",
"m  c #16171E",
"M  c #17171E",
"N  c #17171F",
"B  c #17181F",
"V  c #18181F",
"C  c #181820",
"Z  c #191920",
"A  c #181921",
"S  c #191921",
"D  c #191922",
"F  c #191A22",
"G  c #1A1A22",
"H  c #1A1A23",
"J  c #1B1B24",
"K  c #1B1B25",
"L  c #1B1C25",
"P  c #1C1C25",
"I  c #1C1C26",
"U  c #1C1D26",
"Y  c #1D1D27",
"T  c #1D1E27",
"R  c #1D1E28",
"E  c #1E1E28",
"W  c #1E1F28",
"Q  c #1E1E29",
"!  c #1E1F29",
"~  c #1E1F2A",
"^  c #1F202A",
"/  c #1F202B",
"(  c #20212C",
")  c #21222E",
"_  c #21232E",
"`  c #22232F",
"'  c #22242F",
"]  c #222430",
"[  c #232430",
"{  c #232530",
"}  c #232431",
"|  c #232531",
" . c #242530",
".. c #242531",
"X. c #242532",
"o. c #242632",
"O. c #252733",
"+. c #252734",
"@. c #262734",
"#. c #262834",
"$. c #262835",
"%. c #272835",
"&. c #262935",
"*. c #272936",
"=. c #272937",
"-. c #282937",
";. c #282A37",
":. c #282B38",
">. c #282B39",
",. c #292B39",
"<. c #292C39",
"1. c #2A2C39",
"2. c #292C3A",
"3. c #2A2C3A",
"4. c #2A2D3A",
"5. c #2A2D3B",
"6. c #2B2D3B",
"7. c #2B2D3C",
/* pixels */
"! ! ! ! ! ! ! ! ! ! ! ! ! ! ! ! ! ! ! ! ! ! ! ! ! ! ! ! ! ! ! ! ! ! ! ! ! ! ! ! ! ! ! ! ! ! ! ! ! ! ",
"! ! ! ! ! ! ! ! ! ! ! ! ! ! ! ! ! ! ! ! ! ! ! ! ! ! ! ! ! ! ! ! ! ! ! ! ! ! ! ! ! ! ! ! ! ! ! ! ! ! ",
"! ! ! ! ! ! ! ! ! ! ! ! ! ! ! ! ! ! ! ! ! ! ! ! ! ! ! ! ! ! ! ! ! ! ! ! ! ! ! ! ! ! ! ! ! ! ! ! ! ! ",
"! ! ! ! ! ! ! ! ! ! ! ! ! ! ! ! ! ! ! ! ! ! ! ! ! ! ! ! ! ! ! ! ! ! ! ! ! ! ! ! ! ! ! ! ! ! ! ! ! ! ",
"! ! ! ! R ( { { { { { { { { { { { { { { { { { { { { { { { { { { { { { { / L ! ! ! ! ! ! ! ! ! ! ! ! ",
"! ! ! ! ( F i e e e e e e e e e e e e e e e e e e e e e e e e e e e y 8 m %.^ W ! ! ! ! ! ! ! ! ! ! ",
"! ! ! ! ..u                                                           % O.*.E ! ! ! ! ! ! ! ! ! ! ! ",
"! ! ! ! [ u   z b z z z z z z z z z z z z z z z z z z z z z z z c d n 7.-.L W ! ! ! ! ! ! ! ! ! ! ! ",
"! ! ! ! [ u   b M b b b b b b b b b b b b b b b b b b b b b n n g C 6.$.P W ! ! ! ! ! ! ! ! ! ! ! ! ",
"! ! ! ! [ u   z b z z z z z z z z z z z z z z z z z z z z z z s n 1.#.U W ! ! ! ! ! ! ! ^ ! ! ! ! ! ",
"! ! ! ! [ u   z b z z z z z z z z z z z z z z z z z z z z z s M 3.+.U W ! ! ! ! ! ! R _ / T ! ! ! ! ",
"! ! ! ! [ u   z b z z z z z z z z z z z z z z z z z z z v p m 4.#.U R ! ! ! ! ! ! R ..B 7 ^ ^ ! ! ! ",
"! ! ! ! [ u   z b z z z z z z z z z z z z z z z z z z c s M 3.+.I R ! ! ! ! ! ! R ..R   O ' ^ ! ! ! ",
"! ! ! ! [ u   z b z z z z z z z z z z z z z z z z z x s c 5.#.P R ! ! ! ! ! ! R ..E O   7 ` ^ ! ! ! ",
"! ! ! ! [ u   z b z z z z z z z z z z z z z z z z z d n ,.@.I R ! ! ! ! ! ! W [ ! #     0 [ ! ! ! ! ",
"! ! ! ! [ u   z b z z z z z z z z z z z z z z z z d b 2.$.P W ! ! ! ! ! ! R ..! o   : $ 7 [ ! ! ! ! ",
"! ! ! ! [ u   z b z z z z z z z z z z z z z z z d M ,.+.I W ! ! ! ! ! ! R ..R #   * H & 4 [ ! ! ! ! ",
"! ! ! ! [ u   z b z z z z z z z z z z z z z z p M 3.@.U W ! ! ! ! ! ! R | R O   & N J o 5 [ ! ! ! ! ",
"! ! ! ! [ u   z b z z z z z z z z z z z z v s m <.+.U W ! ! ! ! ! ! R ..R O   & V C V O 5 [ ! ! ! ! ",
"! ! ! ! [ u   z b z z z z z z z z z z z v s b 3.+.P W ! ! ! ! ! ! R ..R O   & N C l C O 5 [ ! ! ! ! ",
"! ! ! ! [ u   z b z z z z z z z z z z b d z ,.$.U W ! ! ! ! ! ! R | ! @   * N C k z C O 5 [ ! ! ! ! ",
"! ! ! ! [ u   z b z z z z z z z z z x s v 3.$.P R ! ! ! ! ! ! R ..E O   * C C k z z C O 5 [ ! ! ! ! ",
"! ! ! ! [ u   z b z z z z z z z z z d b ,.#.I R ! ! ! ! ! ! W { ! #   * N C k z z z C O 5 [ ! ! ! ! ",
"! ! ! ! [ u   z b z z z z z z z z s m 3.#.P W ! ! ! ! ! ! W ..R o   * V C k z z z z C O 5 [ ! ! ! ! ",
"! ! ! ! [ u   z b z z z z z z z d m ,.@.I W ! ! ! ! ! ! R ..Y O   = C V k z z z z z C O 5 [ ! ! ! ! ",
"! ! ! ! [ u   z b z z z z z z d n 2.O.L ! ! ! ! ! ! ! R } R O   * C C k z z z z z z C O 5 [ ! ! ! ! ",
"! ! ! ! [ u   z b z z z z v d z >.#.U W ! ! ! ! ! ! R ..! O   * C N l z z z z z z z C O 5 [ ! ! ! ! ",
"! ! ! ! [ u   z b z z z v s b ,.+.U W ! ! ! ! ! ! R ..R #   - C N l z z z z z z z z C O 5 [ ! ! ! ! ",
"! ! ! ! [ u   z b z z v d z :.$.U R ! ! ! ! ! ! R ..! @   - C C l z z z z z z z z z C O 5 [ ! ! ! ! ",
"! ! ! ! [ u   z b z v d b 3.$.P R ! ! ! ! ! ! R ..R O   - S V k z z z z z z z z z z C O 5 [ ! ! ! ! ",
"! ! ! ! [ u   z b x d b ,.#.I R ! ! ! ! ! ! W ..R O   : C V k z z z z z z z z z z z C O 5 [ ! ! ! ! ",
"! ! ! ! [ u   z b d b <.@.P W ! ! ! ! ! ! W  .R o   ; S V k z z z z z z z z z z z z C O 5 [ ! ! ! ! ",
"! ! ! ! [ u   z h z ,.#.I W ! ! ! ! ! ! R ..Q O   ; C N l z z z z z z z z z z z z z C O 5 [ ! ! ! ! ",
"! ! ! ! [ u   d N :.@.U W ! ! ! ! ! ! R } R #   : S N l z z z z z z z z z z z z z z C O 5 [ ! ! ! ! ",
"! ! ! ! [ a   l 2.$.U E ! ! ! ! ! ! R ..! O   : C N l z z z z z z z z z z z z z z z C O 5 [ ! ! ! ! ",
"! ! ! ! ..6 + 5.&.U W ! ! ! ! ! ! R ..R #   : S N l z z z z z z z z z z z z z z z z C O 5 [ ! ! ! ! ",
"! ! ! ! ( v ] ;.U R ! ! ! ! ! ! R ..R O   : Z N l z z z z z z z z z z z z z z z z z C O 5 [ ! ! ! ! ",
"! ! ! ! I @.=.L R ! ! ! ! ! ! R ..R o   > D N l z z z z z z z z z z z z z z z z z z C O 5 [ ! ! ! ! ",
"! ! ! ! ! / R E ! ! ! ! ! ! R ..E O   > S N l z z z z z z z z z z z z z z z z z z z C O 5 [ ! ! ! ! ",
"! ! ! ! ! R ! ! ! ! ! ! ! W [ ! @   , S N l z z z z z z z z z z z z z z z z z z z z C O 5 [ ! ! ! ! ",
"! ! ! ! ! ! ! ! ! ! ! ! R ..! o   < S N l z z z z z z z z z z z z z z z z z z z z z C O 5 [ ! ! ! ! ",
"! ! ! ! ! ! ! ! ! ! ! R ..R #   < D N z z z z z z z z z z z z z z z z z z z z z z z C O 5 [ ! ! ! ! ",
"! ! ! ! ! ! ! ! ! ! R | R O   7 P G V C C C C C C C C C C C C C C C C C C C C C C C K O 3 [ ! ! ! ! ",
"! ! ! ! ! ! ! ! ! ! ) A       # @ . X X X X X X X X X X X X X X X X X X X X X X X X O   1 X.! ! ! ! ",
"! ! ! ! ! ! ! ! ! ~ ( r 2 a j t q w w w w w w w w w w w w w w w w w w w w w w w w w 9 f A ( ! ! ! ! ",
"! ! ! ! ! ! ! ! ! ! R ( ' o.+.O.O.O.O.O.O.O.O.O.O.O.O.O.O.O.O.O.O.O.O.O.O.O.O.O.O.O.O.@.` T ! ! ! ! ",
"! ! ! ! ! ! ! ! ! ! ! ! ! W R R R R R R R R R R R R R R R R R R R R R R R R R R R R R R W ! ! ! ! ! ",
"! ! ! ! ! ! ! ! ! ! ! ! ! ! ! ! ! ! ! ! ! ! ! ! ! ! ! ! ! ! ! ! ! ! ! ! ! ! ! ! ! ! ! ! ! ! ! ! ! ! ",
"! ! ! ! ! ! ! ! ! ! ! ! ! ! ! ! ! ! ! ! ! ! ! ! ! ! ! ! ! ! ! ! ! ! ! ! ! ! ! ! ! ! ! ! ! ! ! ! ! ! ",
"! ! ! ! ! ! ! ! ! ! ! ! ! ! ! ! ! ! ! ! ! ! ! ! ! ! ! ! ! ! ! ! ! ! ! ! ! ! ! ! ! ! ! ! ! ! ! ! ! ! "
};
