/* XPM */
static char *result[] = {
/* columns rows colors chars-per-pixel */
"50 50 35 1 ",
"  c #000000",
". c #060608",
"X c #09090C",
"o c #0D0D12",
"O c #0F1015",
"+ c #111217",
"@ c #14151A",
"# c #16181F",
"$ c #18181F",
"% c #171820",
"& c #1A1C24",
"* c #1E1F28",
"= c #1F202A",
"- c #21222C",
"; c #242632",
": c #262935",
"> c #282A37",
", c #272938",
"< c #2A2D3A",
"1 c #2D303F",
"2 c #2D2F40",
"3 c #2E3241",
"4 c #313545",
"5 c #333749",
"6 c #363B4D",
"7 c #383D4F",
"8 c #383D51",
"9 c #3C4155",
"0 c #3E4359",
"q c #41475D",
"w c #42485F",
"e c #454A62",
"r c #484E67",
"t c #494F69",
"y c #4C526C",
/* pixels */
"88887887595959959595499959959495777778878878868886",
"87788788999999999999995999999999988908889887888888",
"77778885599959599959999949999959777767777558888886",
"77778780;=;;;;;:=::=:<=:;:=:=::=:::::::,;;70688888",
"8888787e9OO===#=%==#=====;==;=%=%&%%&%&%@4e7788888",
"88898785r9#@=;=;;=;=:4<;11=:3<==;;;;;;-*6e68888888",
"88559778409==;>;;::;<41:34:<51:::::::;-8r677885488",
"875<698799w9##;;;;;;<4<:14:<41=:;;;;;*6e7777884688",
"886:>696995w9%%;:;;;<51:34:15<;:;;;;*8e777797>6w68",
"898:&1796666r0%=::;;><<;<1::1:;;;;;-6e7677984@4w68",
"696:&=169996509=%>>>:;;:;:::::::,;=7e6687881&@6w66",
"897:==;<59599900@@------========*&6e6888981*&-6q68",
"877:&:;;<69959509o+*==**=======#+5r7688881&&;-6q68",
"897,&;;;;<599695e0Xo%%#$@##&=#@o5r7688984*&;;-6q68",
"898:&;;:=;1999596r6            >r8688884*&;:;-6q68",
"876:=;;;:;=1599576y7          <y8688983*%;:;;-6q68",
"797:&;;;;;;*<898766y8        2y8777973%&:::;;-6q66",
"797>*;>;::<=$<987766r7      <y8777703@+:,:;;;-6q69",
"797:&;::-=-*$+;998765y8    <y777789<OO&;==:;;-6q66",
"787:&;:>=&;-*+ >087776y7  <y8777904..==;&&,;;=6q59",
"787:&;::==>-*%  <098876r2;t8778994X +*=>==::;=6q66",
"797:&;::=-<-*%   ,087876er8888704X  +==>-&:;:=7069",
"787:&;::=-<-*$    <9888766887803X   +-=:==:;:=6e59",
"797<=:><-->-*%     <98888888803.    +-=>;=<::;6066",
"797:@&==%=<**%      =09788889,.     +=*>-#&==#5q69",
"797:@&&&%*<;*%      :r77888804      +==>-@==&#5q56",
"797,=,<3;*<-*%     <y77768887r6     +*=>-=<<,;9096",
"777:&;:,**<-*%    3y7788888886r6    +-=>==,;;=6q59",
"599:&;;:*;<-*%   <y868887787866y8   +==,-=;;;-6q65",
"996:=;::*-,-*&  <y877789,;088776y7  @==,-=,;;-6q69",
"699;&;::*%;*&+ ,y7778993. :098776r9 .===#=,;;=9q69",
"596;=;::-%&&@X<y8677894.   ,087766r5.X#=#=,;;=5066",
"995:=-;;:>>-@5t919999<X     >097775r0+@<,:;:;=6066",
"699:&;:;;;;$4r9699991.       1097777e8+&::;;;=6e66",
"595>&;;;:-=6w9699901.         >998775e0%%::;:=5e69",
"999>=;:;;=9w9595901.           ;997786e0%&:::=7059",
"599;#;;;=9w5559994O.O@OO@+++++oO<887775e0%%::=7066",
"699:=;;=5w9999591@+=======-=---&%,797888e0%%:=6e69",
"995>===6w9955991#@=============-&&<707777e0%%=6066",
"599;#=9w9559991=&::::;;::;;;-;:;:;;<688877e9%@7e66",
"499;+9w9695991&#;::::<:::;::<,;;;:=;<698775e0@3e69",
"999=409595991==;::;=:91:19:<9<;;;::;;<697788e55066",
"5949w9499991=%;;;;:;:9:;19:<1,;;;;;:;;<6977750e069",
"5999999595>=&;:;:;;=<1<;<<:,4,;;;:;;;;;<5977980959",
"9999995991=#;:;;=;;;;9<;<9=:4<;;;:;;:;;;<898886866",
"94945999>@@==---====-1:=<<-;3;===========:59888896",
"99949551515949949999999999999949667666685634986896",
"54999949qeqqqqq009909900909900000e000e000e93668866",
"99994499494494494949449459449545766666666689686696",
"94499949999999944999999994995999696986698868889696"
};
