/* XPM */
static char *result[] = {
/* columns rows colors chars-per-pixel */
"50 50 168 2 ",
"   c #020202",
".  c #0A0807",
"X  c #020709",
"o  c #070B0D",
"O  c #0C0A0A",
"+  c #120F0E",
"@  c #13100F",
"#  c #151212",
"$  c #1A1615",
"%  c #1B1916",
"&  c #161A1C",
"*  c #1C1B1B",
"=  c #221E1D",
"-  c #25221F",
";  c #1F2123",
":  c #242222",
">  c #2B2523",
",  c #2D2826",
"<  c #222628",
"1  c #272A2A",
"2  c #2D2F2F",
"3  c #312B27",
"4  c #332E2B",
"5  c #382F2B",
"6  c #36312D",
"7  c #3A322F",
"8  c #2E2F30",
"9  c #2F3132",
"0  c #323334",
"q  c #3C3632",
"w  c #3F3936",
"e  c #373738",
"r  c #37393A",
"t  c #3B3B3B",
"y  c #403935",
"u  c #433D3A",
"i  c #493F3B",
"p  c #46413D",
"a  c #4C433E",
"s  c #454545",
"d  c #4B4642",
"f  c #4F4A47",
"g  c #4B4D4E",
"h  c #544A45",
"j  c #584D47",
"k  c #554D4A",
"l  c #584F4A",
"z  c #54504E",
"x  c #5C524D",
"c  c #4D4F50",
"v  c #4F5151",
"b  c #545353",
"n  c #5E5551",
"m  c #5C5857",
"M  c #575859",
"N  c #5A5959",
"B  c #625751",
"V  c #655B55",
"C  c #695D57",
"Z  c #655E5A",
"A  c #695F58",
"S  c #65605D",
"D  c #6D625C",
"F  c #71655E",
"G  c #666361",
"H  c #6C6562",
"J  c #6D6A69",
"K  c #726761",
"L  c #766A64",
"P  c #796D66",
"I  c #736D6A",
"U  c #7B6F69",
"Y  c #7D716B",
"T  c #797471",
"R  c #7E7976",
"E  c #82756E",
"W  c #837772",
"Q  c #857972",
"!  c #8B7F77",
"~  c #837D7A",
"^  c #8B7F79",
"/  c #86817E",
"(  c #8D827C",
")  c #92857E",
"_  c #868686",
"`  c #8A8582",
"'  c #8D8985",
"]  c #8C8B8B",
"[  c #928781",
"{  c #958982",
"}  c #9A8D86",
"|  c #978F8B",
" . c #9C8F88",
".. c #95908C",
"X. c #9D918B",
"o. c #939393",
"O. c #9F9691",
"+. c #9C9B9B",
"@. c #A1948C",
"#. c #A5988F",
"$. c #A69993",
"%. c #AB9D96",
"&. c #A69F9B",
"*. c #AC9F98",
"=. c #AFA097",
"-. c #AEA29B",
";. c #B2A49C",
":. c #9E9FA0",
">. c #A4A4A4",
",. c #AEA7A2",
"<. c #ACACAC",
"1. c #B3A6A1",
"2. c #B5A9A3",
"3. c #BAACA4",
"4. c #B4ACA8",
"5. c #BBAFA8",
"6. c #B7B0AB",
"7. c #BDB1AA",
"8. c #BEB6B0",
"9. c #BCBDBD",
"0. c #C1B4AC",
"q. c #C8B6AF",
"w. c #C3B6B0",
"e. c #C6BAB4",
"r. c #CABDB6",
"t. c #CBBFB9",
"y. c #D1BFB6",
"u. c #C7C0BA",
"i. c #CDC1BB",
"p. c #D2C0B7",
"a. c #D3C2BA",
"s. c #D8C6BD",
"d. c #D7C8BF",
"f. c #D9C8BF",
"g. c #BEBFC0",
"h. c #BFC0C0",
"j. c #C3C3C3",
"k. c #CACACB",
"l. c #D3C7C1",
"z. c #D6C9C3",
"x. c #DCCBC2",
"c. c #DED3CC",
"v. c #CFD0D1",
"b. c #D4D4D4",
"n. c #D7D7D8",
"m. c #DADBDB",
"M. c #E0CEC5",
"N. c #E2D0C7",
"B. c #E3D4CB",
"V. c #EAD6CC",
"C. c #EAD8CE",
"Z. c #E2D7D1",
"A. c #E5DAD3",
"S. c #ECDCD4",
"D. c #E9DED8",
"F. c #F0DCD2",
"G. c #EDE2DB",
"H. c #F2E0D6",
"J. c #F3E7DF",
"K. c #E2E2E3",
"L. c #F5E9E2",
"P. c #F9ECE4",
"I. c #F9EFE8",
"U. c #FFF4EC",
"Y. c #FFF8EF",
"T. c #FFFBF3",
"R. c white",
"E. c None",
/* pixels */
"E.E.E.E.E.E.E.< M M M N s s v g g g g g g g g g g c g g g v g g g c c c g s M N N N 9 E.E.E.E.E.E.E.",
"E.E.E.E.E.E.z.4.' s g s < / 6.-.-.:.:.-.&.&.-.&.&.&.&.-.-.+.:.-.&.&.&.-.,.r 8 c t J ,.u.E.E.E.E.E.E.",
"E.E.E.E.q.z.J.R.7.0 g 9 S Y.U.P.P.P.L.L.I.I.P.I.I.P.I.P.L.P.L.L.P.P.P.I.R.~ ; b 9 R R.L.x.e.E.E.E.E.",
"E.E.E.r.p.d.Z.I.' & t 2 -.Y.c.c.c.c.Z.c.A.G.c.G.A.Z.G.c.G.G.c.Z.c.Z.c.c.J.i.s t ; S D.S.x.p.y.E.E.E.",
"E.E.p.a.p.s.A.L.M   o v Z.G.c.Z.Z.c.A.G.;.-.z.$.r.z.@.z.7.$.B.A.c.Z.c.B.c.U.` o   r c.L.z.r.d.r.E.E.",
"E.p.a.a.p.a.Z.S.-.R ~ 8.J.c.Z.c.c.Z.c.L.) % x.a H { $ S.u z J.A.Z.c.Z.c.c.J.t.` R | c.D.s.y.p.s.y.E.",
"r.a.p.a.u.a.A.A.I.Y.Y.J.c.Z.C.Z.Z.Z.A.I.'   c.w z R . J.* f I.S.Z.Z.Z.Z.Z.c.D.Y.T.U.A.A.x.r.p.p.a.y.",
"r.r.r.r.e.l.x.a.x.d.a.s.s.a.a.a.s.a.s.C.(   a.q a K   S.# d H.s.s.a.s.a.z.a.s.a.x.z.p.x.z.e.r.r.r.i.",
"r.t.r.r.e.l.l.E #.N.p.r.p.p.p.p.y.y.y.M.) i r.B Y } y a.B D f.a.y.y.y.y.y.y.y.a.M.[ ( x.z.e.t.t.r.r.",
"r.r.r.r.e.l.c.=.D =.V.p.p.p.p.p.p.a.a.s.=.;.q.$.w.p.#.0.0.$.y.a.a.y.a.y.y.a.s.B.{ D 0.M.l.e.e.e.r.r.",
"r.r.r.r.r.i.s.N.2.D =.V.a.p.p.p.p.p.a.y.s.s.a.s.a.a.s.a.s.s.a.p.y.a.s.y.a.s.B.{ D r.N.a.l.e.t.t.r.r.",
"r.r.r.r.r.a.s.r.V.;.C %.N.p.a.a.a.p.y.a.y.a.p.a.a.p.a.a.p.a.a.p.a.y.y.y.a.N.{ F q.V.y.l.z.e.e.t.r.r.",
"r.t.r.r.e.i.s.p.p.V.2.C ;.x.p.p.p.p.a.p.y.a.p.a.p.p.a.p.p.p.p.a.y.y.s.y.M.} A r.N.y.y.x.l.e.t.e.r.r.",
"t.t.r.r.e.l.s.p.p.p.N.3.;.s.p.p.p.a.p.a.a.p.a.p.a.a.p.p.p.p.p.p.y.y.y.s.y.=.0.M.y.y.y.y.l.g.t.t.r.r.",
"t.r.r.r.e.a.z.p.p.p.p.x.x.r.f.N.M.M.N.N.M.M.M.M.N.N.M.N.N.N.N.N.N.N.N.M.y.M.M.y.y.s.y.x.l.e.r.r.r.r.",
"9.r.r.r.e.j.d.p.p.p.a.i.a.V.0.@.=.=.=.;.=.;.;.%.=.=.=.;.=.=.;.=.%.%.@.2.M.s.y.s.y.y.y.y.l.e.r.r.r.r.",
"r.r.r.r.e.d.a.p.p.a.a.a.N.0.F D F C C V C C C C C C C V C Z C C Z H F A =.N.a.y.a.a.y.s.l.e.t.r.r.r.",
"u.r.r.r.e.a.d.p.a.p.p.f.3.D E Y 7 4 - . , O = 7 4 4 q O $ % . q 3 3 L W A ;.M.y.y.a.y.s.l.e.t.r.r.r.",
"r.r.u.r.e.i.d.p.p.a.a.N.) F P 4 , y $   :   + q 4 4 q   O O   6 5 3 , A L ^ M.y.y.a.y.s.l.e.r.r.r.t.",
"r.r.u.u.8.d.d.p.p.p.a.N.) E a - i h 4   q . : h a a h O = =   h d i 3 y P ) M.y.a.y.y.a.l.e.t.t.e.t.",
"r.r.r.r.u.i.d.p.a.p.p.f.X.F B 5 h ] o.] o.] o.o.o.o.o.] ] ] ] +.o.n 5 l L ) M.a.y.a.y.y.x.e.r.r.t.t.",
"r.r.r.e.z.x.C.N.p.p.a.N. .L x p o.9.k.K.n.m.n.n.n.n.n.m.m.m.m.k.g.:.f h P ) M.a.y.y.N.V.l.z.r.t.t.e.",
"r.r.u.i.) 8.X.) f.p.a.f. .L j d 9.<.] n.>.>.>.>.>.>.>.>.>.:.v._ <.v.V i L ) x.y.s.M.{  .l.| t.t.t.t.",
"i.i.i.c.S 2.D n H.s.s.V.X.L j p <.b.j.k.j.j.j.j.j.j.j.j.h.t.k.k.b.g.l a P { M.s.s.F.B V x.J i.i.r.r.",
"7.7.5.5.7.w.r.w.5.0.0.q.) U j p <.m.n.j.>.:.>.>.>.>.>.>.>.+.h.n.m.9.v a P ) q.0.3.0.e.q.7.w.5.5.6.6.",
"r.r.r.e.a.i.z.d.y.r.y.s.} P j p >.n.b.k.9.9.9.9.9.9.9.9.9.9.j.b.n.g.z d L ) s.y.r.r.z.z.t.l.r.r.r.r.",
"r.r.u.c.S 2.S n C.s.s.N.X.L j p <.n.v.j.<.>.<.<.<.<.<.<.>.>.j.b.n.e.l a L { M.s.a.F.n V z.K j.i.t.r.",
"r.r.t.l.) 8.{ ) M.a.a.f. .P h d h.<.] n.<.<.6.<.<.<.<.<.6.<.b._ <.b.N i L { f.y.a.M.[ [ z.| r.r.r.r.",
"t.r.r.e.z.z.A.N.r.p.a.M. .L x w o.9.h.K.K.K.K.K.K.K.K.K.K.K.K.h.9.>.d h P { M.y.y.y.V.V.l.z.r.r.r.r.",
"t.e.t.r.e.d.d.p.a.p.a.M. .L V 3 u ] >.o.o.o.o.o.o.o.o.o.o.o.o.>.o.d > n P ) f.s.a.p.y.a.l.e.r.r.r.r.",
"e.t.r.r.r.i.d.p.a.p.a.x. .P x w 7 6 :   , . = q 6 6 q O $ % X q 5 5 y j P ) f.y.y.a.y.a.l.r.r.t.r.r.",
"e.t.r.r.r.d.a.p.p.p.a.N.) D Y a u a -   3   # a q q u   O +   u y u i L F ! M.a.a.a.y.s.l.r.r.t.h.r.",
"t.t.t.e.w.l.d.p.p.p.p.x.7.D U Y d h 7   y O > l d d l + = - . j d a L E A ;.M.a.p.a.y.s.z.e.r.r.r.r.",
"t.e.e.t.r.l.d.r.p.p.a.p.V.0.D D D C V B C B C A C C A B V B B C C C D A ;.B.a.a.p.p.a.a.s.r.r.r.r.r.",
"r.9.t.t.e.i.d.p.a.p.a.p.p.N.w.X.%.%.;.;.;.;.;.%.%.=.=.;.;.;.;.%.=.%.@.3.B.p.y.y.a.p.y.a.l.r.r.r.r.r.",
"r.t.t.e.r.i.s.p.p.a.p.x.s.y.f.A.V.M.B.B.N.B.B.M.B.N.B.B.B.B.B.V.B.B.B.M.y.x.x.y.p.a.p.s.l.r.r.r.r.r.",
"r.r.r.r.e.j.s.p.p.p.M.3.0.s.p.p.y.y.y.y.y.y.y.y.y.p.y.p.a.y.y.y.y.y.y.a.s.;.q.M.y.y.y.x.l.e.r.r.r.r.",
"r.r.r.r.e.d.s.r.p.V.;.S ;.M.p.p.a.a.a.a.a.a.a.a.p.a.p.a.y.a.a.y.a.y.a.y.M.@.A e.V.y.y.y.l.e.r.r.r.r.",
"r.r.e.u.e.l.d.p.V.;.C =.N.p.p.a.a.y.y.a.a.y.a.y.a.y.a.y.a.a.y.a.y.y.a.a.s.M.{ F r.N.y.l.k.e.r.r.r.r.",
"r.r.r.r.e.i.d.N.;.D =.V.a.p.a.p.y.a.a.y.s.x.y.x.s.a.M.y.s.f.a.p.a.a.y.a.y.s.B.{ K q.N.a.l.e.r.r.r.t.",
"r.r.r.t.e.l.c.;.D =.B.a.p.p.a.p.y.a.y.y.y.a.y.y.s.s.y.r.s.r.p.p.a.a.y.y.a.y.s.B.{ F 0.x.z.r.r.r.t.r.",
"t.t.t.t.r.z.a.Y $.V.p.p.p.p.p.p.y.y.a.M. .F e.U } =.C y.Q W s.s.y.y.y.y.y.y.y.a.M.[ ^ x.z.r.t.t.t.t.",
"r.r.t.t.e.z.x.a.N.s.d.x.z.d.s.x.z.z.z.S.^   s.y h U O S.= h H.x.x.s.z.x.x.z.z.z.M.N.y.x.z.e.t.t.t.r.",
",.$.%.%.$.-.e.e.a.c.x.i.0.w.w.w.w.w.e.z.^ . 0.u f H # x.* h z.e.w.w.w.w.0.0.t.x.x.x.r.e.4.$.%.%.$.-.",
"E.$.} X. .@.1.1.~ G H X.5.-.-.-.;.-.1.7.W . 1.i p Z $ r.% k w.;.;.-.;.,.;.5.$.I H R -.2.$. . . .$.E.",
"E.E.%.@.X.%.5.w.b X & b 5.5.2.2.2.2.2.5.[ L 1.U [ O.F 1.W E 3.5.2.2.2.1.1.t.T & X t 4.0.*.@.@.$.E.E.",
"E.E.E.%. .%.3.e.T : t 0 ` p.2.2.2.2.2.2.;.2.1.;.3.3.;.*.3.;.1.2.2.2.2.2.0.*.g e : N 5.7.-. .$.E.E.E.",
"E.E.E.E.$.%.0.M.o.t g r m p.r.e.w.e.q.q.r.t.q.t.r.e.t.r.r.u.e.w.w.w.e.q.M.I < v r I z.w.%.$.E.E.E.E.",
"E.E.E.E.E.E.1.O./ g b b 8 R &.| | | | | | | | | | | | ..| | | | | | | X.$.t t N g J o.&.3.E.E.E.E.E.",
"E.E.E.E.E.E.E.& 0 s s s 0 1 6 2 2 2 2 2 2 2 2 8 2 8 8 2 2 2 9 2 8 8 8 8 1 8 s s s t $ E.E.E.E.E.E.E."
};
