/* XPM */
static char *result[] = {
/* columns rows colors chars-per-pixel */
"50 50 235 2 ",
"   c #FD7D25",
".  c #FF820F",
"X  c #FE851B",
"o  c #FE861E",
"O  c #FD8F1B",
"+  c #FF9612",
"@  c #FD9917",
"#  c #FF9519",
"$  c #FD911E",
"%  c #FD911F",
"&  c #FB961D",
"*  c #FE941D",
"=  c #FF9F1C",
"-  c #FFA60F",
";  c #FFB904",
":  c #FFB60B",
">  c #FFA013",
",  c #FEA314",
"<  c #FFA414",
"1  c #FFAF10",
"2  c #FFA916",
"3  c #FEA219",
"4  c #FFA01A",
"5  c #FDA21F",
"6  c #FFA31E",
"7  c #FDAF18",
"8  c #FFAE1D",
"9  c #FFB310",
"0  c #FDB116",
"q  c #FEB217",
"w  c #FFB911",
"e  c #FC8921",
"r  c #FD8A20",
"t  c #FC8822",
"y  c #FE8B22",
"u  c #FF8F20",
"i  c #FC8A27",
"p  c #FD8E26",
"a  c #FC8729",
"s  c #FB8D2B",
"d  c #FC8A2D",
"f  c #FE8D2F",
"g  c #FF9622",
"h  c #FD9923",
"j  c #FE9A23",
"k  c #FC9E27",
"l  c #FB902B",
"z  c #FD9B2B",
"x  c #FE9D28",
"c  c #FF9A2F",
"v  c #FB8D30",
"b  c #F89530",
"n  c #FB9730",
"m  c #FF9833",
"M  c #FC973A",
"N  c #FD9E3E",
"B  c #FCA222",
"V  c #FDB025",
"C  c #FEB627",
"Z  c #FEB822",
"A  c #FFBE22",
"S  c #FEBB25",
"D  c #FDA335",
"F  c #FDB836",
"G  c #FFC807",
"H  c #FFC90A",
"J  c #FFC80B",
"K  c #FFD30A",
"L  c #FFD70D",
"P  c #FFD90C",
"I  c #FFD90E",
"U  c #FFD90F",
"Y  c #FEC010",
"T  c #FEC110",
"R  c #FFC115",
"E  c #FFC315",
"W  c #FFCD13",
"Q  c #FFC31B",
"!  c #FFC518",
"~  c #FFC31C",
"^  c #FFC31E",
"/  c #FFCF1A",
"(  c #FFD211",
")  c #FFD115",
"_  c #FFD516",
"`  c #FFDF17",
"'  c #FFD01A",
"]  c #FFD31E",
"[  c #FFD61E",
"{  c #FFD71E",
"}  c #FFD71F",
"|  c #FFDA1A",
" . c #FFDA1B",
".. c #FFDE19",
"X. c #FFDA1C",
"o. c #FFDD1F",
"O. c #FFE404",
"+. c #FFE509",
"@. c #FFE60A",
"#. c #FFE10D",
"$. c #FFE20E",
"%. c #FFEB0B",
"&. c #FFEE09",
"*. c #FFEC0B",
"=. c #FFEF0A",
"-. c #FFEE0B",
";. c #FFEB0C",
":. c #FFEA0E",
">. c #FFED0C",
",. c #FFEC0D",
"<. c #FFEC0E",
"1. c #FFEC0F",
"2. c #FFED0F",
"3. c #FFF503",
"4. c #FFF207",
"5. c #FFF307",
"6. c #FFF405",
"7. c #FFF605",
"8. c #FFF705",
"9. c #FFF507",
"0. c #FFFA00",
"q. c #FFFB00",
"w. c #FFFB01",
"e. c #FFF902",
"r. c #FFFA02",
"t. c #FFFC00",
"y. c #FFFD00",
"u. c #FFFD01",
"i. c #FFFF01",
"p. c #FFFD02",
"a. c #FFF804",
"s. c #FFF905",
"d. c #FFFF05",
"f. c #FFFF07",
"g. c #FFF109",
"h. c #FFF208",
"j. c #FFF308",
"k. c #FFF10A",
"l. c #FFF408",
"z. c #FFF609",
"x. c #FFF30D",
"c. c #FFF20E",
"v. c #FFF50F",
"b. c #FFF60F",
"n. c #FFFC0B",
"m. c #FFFF0C",
"M. c #FFE611",
"N. c #FFE512",
"B. c #FFE015",
"V. c #FFE016",
"C. c #FFE414",
"Z. c #FFE614",
"A. c #FFEB12",
"S. c #FFE119",
"D. c #FFE31B",
"F. c #FFE418",
"G. c #FFE31E",
"H. c #FFED18",
"J. c #FFF011",
"K. c #FFF614",
"L. c #FFFF13",
"P. c #FFFF14",
"I. c #FFFE15",
"U. c #FFFF17",
"Y. c #FFF119",
"T. c #FFF419",
"R. c #FFF51C",
"E. c #FFFF19",
"W. c #FFFF1B",
"Q. c #FFFF1E",
"!. c #FFCA27",
"~. c #FFCE25",
"^. c #FFCE26",
"/. c #FFC529",
"(. c #FFC02E",
"). c #FFC22E",
"_. c #FFC42F",
"`. c #FFC928",
"'. c #FFCA29",
"]. c #FFCD29",
"[. c #FECB2C",
"{. c #FFCE2E",
"}. c #FFD022",
"|. c #FFD122",
" X c #FFD222",
".X c #FFD223",
"XX c #FFD520",
"oX c #FED421",
"OX c #FFD521",
"+X c #FFD522",
"@X c #FFD423",
"#X c #FFD026",
"$X c #FFDA23",
"%X c #FFDE23",
"&X c #FFDB24",
"*X c #FFDC25",
"=X c #FFD12B",
"-X c #FFD428",
";X c #FFD82A",
":X c #FFDA2E",
">X c #FFC030",
",X c #FFC331",
"<X c #FFC035",
"1X c #FFD535",
"2X c #FFE422",
"3X c #FFEA27",
"4X c #FFEF25",
"5X c #FFED27",
"6X c #FFE82A",
"7X c #FFF724",
"8X c #FFFC21",
"9X c #FFFF21",
"0X c #FFF429",
"qX c #FFEC38",
"wX c #FFF73C",
"eX c #FFFF3D",
"rX c #FC9C40",
"tX c #FBA445",
"yX c #FEAD45",
"uX c #FFAC4F",
"iX c #FEB546",
"pX c #FDA851",
"aX c #FDAC5A",
"sX c #FFCB4A",
"dX c #FECA4E",
"fX c #FFE046",
"gX c #FFEA4D",
"hX c #FFFF4D",
"jX c #FFEC52",
"kX c #FFF451",
"lX c #FEF458",
"zX c #FFF25D",
"xX c #FFD06C",
"cX c #FFFC94",
"vX c None",
/* pixels */
"vXvXvXvXvXvXvXvXvXvXvXvXvXvXvXvXvXvXvXvXvXvXvXvXvXvXvXvXvXvXvXvXvXvXvXvXvXvXvXvXvXvXvXvXvXvXvXvXvXvX",
"vXvXvXvXvXvXvXvXvXvXvXvXvXvXvXvXvXvXvXvXvXvXvXvXvXvXvXvXvXvXvXvXvXvXvXvXvXvXvXvXvXvXvXvXvXvXvXvXvXvX",
"vXvXvXvXvXvXvXvXvXvXvXvXvXvXvXvXvXvXvXvXvXvXvXvXvXvXvXvXvXvXvXvXvXvXvXvXvXvXvXvXvXvXvXvXvXvXvXvXvXvX",
"vXvXvXvXvXvXvXvXvXvXvXvXvXvXvXvXvXvXvXvXvXvXvXvXvXvXvXvXvXvXvXvXvXvXvXvXvXvXvXvXvXvXvXvXvXvXvXvXvXvX",
"vXvXvXvXvXvXvXvXvXvXvXvXvXvXvXvXvXvXvXvXvXvXvXvXvXvXvXvXvXvXvXvXvXvXvXvXvXvXvXvXvXvXvXvXvXvXvXvXvXvX",
"vXvXvXvXvXvXvXvXvXvXvXvXvXvXvXvXvXvXvXvXvXvXvXvXvXvXvXvXvXvXvXvXvXvXvXvXvXvXvXvXvXvXvXvXvXvXvXvXvXvX",
"vXvXvXvXvXvXvXvXvXvXvXvXvXvXvXvXvXvXvXvXvXvXvXvXvXvXvXvXvXvXvXvXvXvXvXvXvXvXvXvXvXvXvXvXvXvXvXvXvXvX",
"vXvXvXvXvXvXvXvXvXvXvXvXvXvXvXvXvXvXvXvXvXvXvXvXvXvXvXvXvXvXvXvXvXvXvXvXvXvXvXvXvXvXvXvXvXvXvXvXvXvX",
"vXvXvXvXvXvXvXvXvXvXvXvXvXvXvXvXvXvXvXvXvXvXvXvXvXv aXpXN m m c u vXvXvXvXvXvXvXvXvXvXvXvXvXvXvXvXvX",
"vXvXvXvXvXvXvXvXvXvXvXvXvXvXvXvXvXvXvXvXvXvXvXvXvXxXhXkXlXzXjXcXtXvXvXvXvXvXvXvXvXvXvXvXvXvXvXvXvXvX",
"vXvXvXvXvXvXvXvXvXvXvXvXvXvXvXvXvXvXvXvXvXvXvXvXuXeX0.3.&.O.wXiXvXvXvXvXvXvXvXvXvXvXvXvXvXvXvXvXvXvX",
"vXvXvXvXvXvXvXvXvXvXvXvXvXvXvXvXvXvXvXvXvXvXvXd gXq.6.-.+.5XsXvXvXvXvXvXvXvXvXvXvXvXvXvXvXvXvXvXvXvX",
"vXvXvXvXvXvXvXvXvXvXvXvXvXvXvXvXvXvXvXvXvXvXvXdXU.a.g.;.H.fXrXvXvXvXvXvXvXvXvXvXvXvXvXvXvXvXvXvXvXvX",
"vXvXvXvXvXvXvXvXvXvXvXvXvXvXvXvXvXvXvXvXvXvXyX0Xp.9.=.A.qXD vXvXvXvXvXvXvXvXvXvXvXvXvXvXvXvXvXvXvXvX",
"vXvXvXvXvXvXvXvXvXvXvXvXvXvXvXvXvXvXvXvXvXvX;Xm.a.h.%.4XF vXvXvXvXvXvXvXvXvXvXvXvXvXvXvXvXvXvXvXvXvX",
"vXvXvXvXvXvXvXvXvXvXvXvXvXvXvXvXvXvXvXvXvXC Q.t.9.-.Y.1XvXvXvXvXvXvXvXr vXvXvXvXvXvXvXvXvXvXvXvXvXvX",
"vXvXvXvXvXvXvXvXvXvXvXvXvXvXvXvXvXvXvXvXz 7Xd.e.5.,.6Xf vXvXvXj V [.~ b vXvXvXvXvXvXvXvXvXvXvXvXvXvX",
"vXvXvXvXvXvXvXvXvXvXvXvXvXvXvXvXvXvXvXvX/ L.t.7.&.R.= % 8 ^ oX*X:X3XS vXvXvXvXvXvXvXvXvXvXvXvXvXvXvX",
"vXvXvXvXvXvXvXvXvXvXvXvXvXvXvXvXvXvXvX< E.d.e.4.b.T.) D.G.&X=X,X{.! vXvXvXvXvXvXvXvXvXvXvXvXvXvXvXvX",
"vXvXvXvXvXvXvXvXvXvXvXvXvXvXvXvXvXvXp v.P.u.8.g.2.Z.S.{ |.!.(._.U a vXvXvXvXvXvXvXvXvXvXvXvXvXvXvXvX",
"vXvXvXvXvXvXvXvXvXvXvXvXvXvXvXvXvXvXG W.f.r.l.*.M.V. .+X~./.<X#.& vXvXvXvXvXvXvXvXvXvXvXvXvXvXvXvXvX",
"vXvXvXvXvXvXvXvXvXvXvXvXvXvXvXvXvX, K.I.y.8.k.:.C...[ .X!.>XF.- vXvXvXvXvXvXvXvXvXvXvXvXvXvXvXvXvXvX",
"vXvXvXvXvXvXvXvXvXvXvXvXvXvXvXvXvX$.9Xf.w.l.>.N.` X.XX~.).$X; vXvXvXvXvXvXvXvXvXvXvXvXvXvXvXvXvXvXvX",
"vXvXvXvXvXvXvXvXvXvXvXvXvXvXvXvXw 8XU.i.s.z.x.c.1.<.}.`.-XH vXvXvXvXvXvXvXvXvXvXvXvXvXvXvXvXvXvXvXvX",
"vXvXvXvXvXvXvXvXvXvXvXvXvXvXvX@ J.W.n.j.@.P J 9 K N.!.].( k vXvXvXvXvXvXvXvXvXvXvXvXvXvXvXvXvXvXvXvX",
"vXvXvXvXvXvXvXvXvXvXvXvXvXvXvX: I Y 0 + O vXvX  L  X'.] 7 vXvXvXvXvXvXvXvXvXvXvXvXvXvXvXvXvXvXvXvXvX",
"vXvXvXvXvXvXvXvXvXvXvXvXvXvXy $ vXvXvXvXvXvXvX3 B.~.@XT vXvXvXvXvXvXvXvXvXvXvXvXvXvXvXvXvXvXvXvXvXvX",
"vXvXvXvXvXvXvXvXvXvXvXvXvXvXvXvXvXvXvXvXvXvXvXW } ^.W i vXvXvXvXvXvXvXvXvXvXvXvXvXvXvXvXvXvXvXvXvXvX",
"vXvXvXvXvXvXvXvXvXvXvXvXvXvXvXvXvXvXvXvXvXvXB _ #X| * vXvXvXvXvXvXvXvXvXvXvXvXvXvXvXvXvXvXvXvXvXvXvX",
"vXvXvXvXvXvXvXvXvXvXvXvXvXvXvXvXvXvXvXvXvXvXq XXo.> vXvXvXvXvXvXvXvXvXvXvXvXvXvXvXvXvXvXvXvXvXvXvXvX",
"vXvXvXvXvXvXvXvXvXvXvXvXvXvXvXvXvXvXvXvXvXn E %X1 vXvXvXvXvXvXvXvXvXvXvXvXvXvXvXvXvXvXvXvXvXvXvXvXvX",
"vXvXvXvXvXvXvXvXvXvXvXvXvXvXvXvXvXvXvXvXvX4 2XR M vXvXvXvXvXvXvXvXvXvXvXvXvXvXvXvXvXvXvXvXvXvXvXvXvX",
"vXvXvXvXvXvXvXvXvXvXvXvXvXvXvXvXvXvXvXvXvXQ ' g vXvXvXvXvXvXvXvXvXvXvXvXvXvXvXvXvXvXvXvXvXvXvXvXvXvX",
"vXvXvXvXvXvXvXvXvXvXvXvXvXvXvXvXvXvXvXvXh OX5 vXvXvXvXvXvXvXvXvXvXvXvXvXvXvXvXvXvXvXvXvXvXvXvXvXvXvX",
"vXvXvXvXvXvXvXvXvXvXvXvXvXvXvXvXvXvXvXvX2 Z vXvXvXvXvXvXvXvXvXvXvXvXvXvXvXvXvXvXvXvXvXvXvXvXvXvXvXvX",
"vXvXvXvXvXvXvXvXvXvXvXvXvXvXvXvXvXvXvXo A e vXvXvXvXvXvXvXvXvXvXvXvXvXvXvXvXvXvXvXvXvXvXvXvXvXvXvXvX",
"vXvXvXvXvXvXvXvXvXvXvXvXvXvXvXvXvXvXvX6 x vXvXvXvXvXvXvXvXvXvXvXvXvXvXvXvXvXvXvXvXvXvXvXvXvXvXvXvXvX",
"vXvXvXvXvXvXvXvXvXvXvXvXvXvXvXvXvXvXl # vXvXvXvXvXvXvXvXvXvXvXvXvXvXvXvXvXvXvXvXvXvXvXvXvXvXvXvXvXvX",
"vXvXvXvXvXvXvXvXvXvXvXvXvXvXvXvXvXvX. vXvXvXvXvXvXvXvXvXvXvXvXvXvXvXvXvXvXvXvXvXvXvXvXvXvXvXvXvXvXvX",
"vXvXvXvXvXvXvXvXvXvXvXvXvXvXvXvXvXt s vXvXvXvXvXvXvXvXvXvXvXvXvXvXvXvXvXvXvXvXvXvXvXvXvXvXvXvXvXvXvX",
"vXvXvXvXvXvXvXvXvXvXvXvXvXvXvXvXvXX vXvXvXvXvXvXvXvXvXvXvXvXvXvXvXvXvXvXvXvXvXvXvXvXvXvXvXvXvXvXvXvX",
"vXvXvXvXvXvXvXvXvXvXvXvXvXvXvXvXvXvXvXvXvXvXvXvXvXvXvXvXvXvXvXvXvXvXvXvXvXvXvXvXvXvXvXvXvXvXvXvXvXvX",
"vXvXvXvXvXvXvXvXvXvXvXvXvXvXvXvXvXvXvXvXvXvXvXvXvXvXvXvXvXvXvXvXvXvXvXvXvXvXvXvXvXvXvXvXvXvXvXvXvXvX",
"vXvXvXvXvXvXvXvXvXvXvXvXvXvXvXvXvXvXvXvXvXvXvXvXvXvXvXvXvXvXvXvXvXvXvXvXvXvXvXvXvXvXvXvXvXvXvXvXvXvX",
"vXvXvXvXvXvXvXvXvXvXvXvXvXvXvXvXvXvXvXvXvXvXvXvXvXvXvXvXvXvXvXvXvXvXvXvXvXvXvXvXvXvXvXvXvXvXvXvXvXvX",
"vXvXvXvXvXvXvXvXvXvXvXvXvXvXvXvXvXvXvXvXvXvXvXvXvXvXvXvXvXvXvXvXvXvXvXvXvXvXvXvXvXvXvXvXvXvXvXvXvXvX",
"vXvXvXvXvXvXvXvXvXvXvXvXvXvXvXvXvXvXvXvXvXvXvXvXvXvXvXvXvXvXvXvXvXvXvXvXvXvXvXvXvXvXvXvXvXvXvXvXvXvX",
"vXvXvXvXvXvXvXvXvXvXvXvXvXvXvXvXvXvXvXvXvXvXvXvXvXvXvXvXvXvXvXvXvXvXvXvXvXvXvXvXvXvXvXvXvXvXvXvXvXvX",
"vXvXvXvXvXvXvXvXvXvXvXvXvXvXvXvXvXvXvXvXvXvXvXvXvXvXvXvXvXvXvXvXvXvXvXvXvXvXvXvXvXvXvXvXvXvXvXvXvXvX",
"vXvXvXvXvXvXvXvXvXvXvXvXvXvXvXvXvXvXvXvXvXvXvXvXvXvXvXvXvXvXvXvXvXvXvXvXvXvXvXvXvXvXvXvXvXvXvXvXvXvX"
};
