/* XPM */
static char *result[] = {
/* columns rows colors chars-per-pixel */
"50 50 205 2 ",
"   c #0C0C0B",
".  c #050507",
"X  c gray8",
"o  c #1B1B1B",
"O  c #1C1A0D",
"+  c #211C01",
"@  c #36311A",
"#  c #232322",
"$  c #2D2C2B",
"%  c #2A2926",
"&  c #32312C",
"*  c #3C3C3B",
"=  c #373738",
"-  c #463B0A",
";  c #403E38",
":  c #4F4103",
">  c #53460A",
",  c #5F5700",
"<  c #675200",
"1  c #735D02",
"2  c #7A6506",
"3  c #75651D",
"4  c #7B711E",
"5  c #48442F",
"6  c #4C4936",
"7  c #44433F",
"8  c #766934",
"9  c #756C32",
"0  c #3E3E40",
"q  c #434344",
"w  c #4A4944",
"e  c #494742",
"r  c #54534D",
"t  c #585754",
"y  c #5C5A54",
"u  c #5C5C5A",
"i  c #555552",
"p  c #62615D",
"a  c #6B685B",
"s  c #746E58",
"d  c #7F7852",
"f  c #726B4B",
"g  c #656462",
"h  c #6C6B66",
"j  c #6C6B6A",
"k  c #7C796C",
"l  c #7A7667",
"z  c #747472",
"x  c #7C7A74",
"c  c #890300",
"v  c #9B0300",
"b  c #961700",
"n  c #AF0000",
"m  c #B40000",
"M  c #A12C00",
"N  c #C60100",
"B  c #D10400",
"V  c #D91500",
"C  c #D22E00",
"Z  c #C83E00",
"A  c #D03100",
"S  c #B85500",
"D  c #887100",
"F  c #92770E",
"G  c #857514",
"H  c #887111",
"J  c #BF6300",
"K  c #B57A00",
"L  c #857324",
"P  c #C64D00",
"I  c #DC5500",
"U  c #C66100",
"Y  c #D67D00",
"T  c #817D5F",
"R  c #817F78",
"E  c #8C8409",
"W  c #9B8401",
"Q  c #9C8B02",
"!  c #A68704",
"~  c #AA9307",
"^  c #B49401",
"/  c #BB9602",
"(  c #B99807",
")  c #A89418",
"_  c #AD8F17",
"`  c #BBAA08",
"'  c #ADA818",
"]  c #B4B005",
"[  c #968826",
"{  c #968337",
"}  c #908A37",
"|  c #A28D37",
" . c #A7973A",
".. c #AE9928",
"X. c #B6A928",
"o. c #BCA137",
"O. c #D58B00",
"+. c #DC8700",
"@. c #C19C01",
"#. c #C39F0F",
"$. c #D99900",
"%. c #C2A204",
"&. c #CEA601",
"*. c #CCAC00",
"=. c #C3A20B",
"-. c #C3AA06",
";. c #D5AD02",
":. c #DAAE01",
">. c #C8B30B",
",. c #DBB300",
"<. c #DEB903",
"1. c #D3BA05",
"2. c #C7AC1B",
"3. c #E2A800",
"4. c #EBBE00",
"5. c #E6B600",
"6. c #F0BF00",
"7. c #C6B22C",
"8. c #CBB02F",
"9. c #DAC503",
"0. c #DACF0F",
"q. c #E4CF00",
"w. c #F4C500",
"e. c #F7CA00",
"r. c #FCCC00",
"t. c #E6D103",
"y. c #FED100",
"u. c #F4DE00",
"i. c #F6D800",
"p. c #EFE600",
"a. c #F5E300",
"s. c #FDE400",
"d. c #FFEB00",
"f. c #FFFE00",
"g. c #938340",
"h. c #8D875D",
"j. c #A79C49",
"k. c #A49752",
"l. c #AB9C5B",
"z. c #A2A04F",
"x. c #BEAF4F",
"c. c #8D8663",
"v. c #938B6B",
"b. c #9C9266",
"n. c #84837D",
"m. c #89867B",
"M. c #8C8A7E",
"N. c #878577",
"B. c #9C9578",
"V. c #A79965",
"C. c #A29770",
"Z. c #ACA377",
"A. c #BCAF66",
"S. c #C0B257",
"D. c #C3AD7B",
"F. c #8D8B84",
"G. c #8E8D89",
"H. c #918F86",
"J. c #94928B",
"K. c #9B988D",
"L. c #9C9B94",
"P. c #9E9D99",
"I. c #989791",
"U. c #A39F8E",
"Y. c #A4A28E",
"T. c #A4A194",
"R. c #A4A29C",
"E. c #A9A59A",
"W. c #ACA897",
"Q. c #B2AE9D",
"!. c #B1AC97",
"~. c #B0A88B",
"^. c #ACABA6",
"/. c #AEADA9",
"(. c #B2AFA5",
"). c #B4B2AB",
"_. c #B8B6AB",
"`. c #B8B5A6",
"'. c #BDBBB4",
"]. c #B9B7B3",
"[. c #C2BA9A",
"{. c #C2BDA9",
"}. c #C1BEB5",
"|. c #C0BEB8",
" X c #C3C1BA",
".X c #CBC8BD",
"XX c #D0CCBB",
"oX c #C9C6A0",
"OX c #C9C7C1",
"+X c #D5D3CC",
"@X c #DDDACB",
"#X c #D8D4C7",
"$X c #DEDCD5",
"%X c #DCDBD5",
"&X c #E1DDD1",
"*X c #E4E2DA",
"=X c #E9E6DC",
"-X c #EBE9DF",
";X c #E3E1D6",
":X c #EDEAE3",
">X c #E9E7E0",
",X c #F1EFE7",
"<X c #F3F1EB",
"1X c #F6F4F0",
"2X c None",
/* pixels */
"2X2X2X2X2X2X2X2X2X2X2X2X2X2X2X2X2X2X2X2X2X2X2X2X2X2X2X2X2X2X2X2X2X2X2X2X2X2X2X2X2X2X2X2X2X2X2X2X2X2X",
"2X2X2X2X2X2X2X2X2X2X2X2X2X2X2X2X2X2X2X2X2X2X2X2X2X2X2X2X2X2X2X2X2X2X2X2X2X2X2X2X2X2X2X2X2X2X2X2X2X2X",
"2X2X2X2X2X2X2X2X2X2X2X2X2X2X2X2X2X2X2X2X2X2X2X2X2X2X2X2X2X2X2X2X2X2X2X2X2X2X2X2X2X2X2X2X2X2X2X2X2X2X",
"2X2X2X2X2X2X2X2X2X2X2X2X2X2X2X2X2X2X2X2X2X2X2X2X2X2X2X2X2X2X2X2X2X2X2X2X2X2X2X2X2X2X2X2X2X2X2X2X2X2X",
"2X2X2X2X2X2X2X2X2X2X2X2X2X2X2X2X2X2X2X2X2X2X2X2X2X2X2X2X2X2X2X2X2X2X2X2X2X2X2X2X2X2X2X2X2X2X2X2X2X2X",
"2X2X2X2X2X2X2X2X2X2X2X2X2X2X2X2X2X2X2X2X2X2X2X2X2X2X2X2X2X2X2X2X2X2X2X2X2X2X2X2X2X2X2X2X2X2X2X2X2X2X",
"2X2X2X2X2X2X2X2X2X2X2X2X2X2X2X2X2X2X2X2X2X2X2X2X2X2X2X2X2X2X2X2X2X2X2X2X2X2X2X2X2X2X2X2X2X2X2X2X2X2X",
"2X2X2X2X2X2X2X2X2X2X2X2X2X2X2X2X2X2X2X2X2X2X2X2X2X2X2X2X2X2X2X2X2X2X2X2X2X2X2X2X2X2X2X2X2X2X2X2X2X2X",
"2X2X2X2X2X2X2X2X2X2X2X2X2X2X2X2X2X2X2X2X2X2X2X2X2X2X2X2X2X2X2X2X2X2X2X2X2X2X2X2X2X2X2X2X2X2X2X2X2X2X",
"2X2X2X2X2X2X2X2X2X2X2X2X2X2X2X2X2X2X2X2X2X2X2X2X2X2X2X2X2X2X2X2X2X2X2X2X2X2X2X2X2X2X2X2X2X2X2X2X2X2X",
"2X2X2X2X2X2X2X2X2X2X2X2X2X2X2X2X2X2X2X2X2X2X2X2X2X2X2X2X2X2X2X2X2X2X2X2X2X2X2X2X2X2X2X2X2X2X2X2X2X2X",
"2X2X2X2X2X2X2X2X2X2X2X2X2X2X2X2X2X2X2X2X2X2X2X2X2X2X2X2X2X2X2X2X2X2X2X2X2X2X2X2X2X2X2X2X2X2X2X2X2X2X",
"2X2X2X2X2X2X2X2X2X2X2X2X2X2X2X2X2X2X2X2X2X2X2X2X2X2X2X2X2X2X2X2X2X2X2X2X2X2X2X2X2X2X2X2X2X2X2X2X2X2X",
"2X2X2X2X2X2X2X2X2X2X2X2X2X2X2X2X2X2X2X2X2X2X2X2X2X2X2X2X2X2X2X2X2X2X2X2X2X2X2X2X2X2X2X2X2X2X2X2X2X2X",
"2X2X2X2X2X2X2X2X2X2X2X2X2X2X2X2X2X2X2X2X2X2X2X2X2X2X2X2X2X2X2X2X2X2X2X2X2X2X2X2X2X2X2X2X2X2X2X2X2X2X",
"2X2X2X2X2X2X2X2X2X2X2X2X2X2X2X2X2X2X2X2X2X2X2X2X2X2X2X2X2X2X2X2X2X2X2X2X2X2X2X2X2X2X2X2X2X2X2X2X2X2X",
"2X2X2X2X2X2X2X2X2X2X2X2X2X2X2X2X2X2X2X2X2X2X2X2X2X2X2X2X2X2X2X2X2X2X2X2X2X2X2X2X2X2X2X2X2X2X2X2X2X2X",
"2X2X2X2X2X2X2X2X2X2X2X2X2X2X2X2X2X2X2X2X2X2X2X2X2X2X2X2X2X2X2X2X2X2X2X2X2X2X2X2X2X2X2X2X2X2X2X2X2X2X",
"2X2X2X2X2X2X2X2X2X2X2X2X2X2X2X2X2X2X2X2X2X2X2X2X2X2X2X2X2X2X2X2X2X2X2X2X2X2X2X2X2X2X2X2X2X2X2X2X2X2X",
"2X2X2X2X2X2X2X2X2X2X2X2X2X2X2X2X2X2X2X2X2X2X2X2X2X2X2X2X2X2X2X2X2X2X2X2X2X2X2X2X2X2X2X2X2X2X2X2X2X2X",
"2X2X2X2X2X2X2X2X2X2X2X2X2X2X2X2X2X2X2X2X2X2X2X2X2X2X2X2X2X2X2X2X2X2X2X2X2X2X2X2X2X2X2X2X2X2X2X2X2X2X",
"2X2X2X2X2X2X2X2X2X2X2X2X2X2X2X2X2X2X2X2X2X2X2X2X2X2X2X2X2X2X2X2X2X2X2X2X2X2X2X2X2X2X2X2X2X2X2X2X2X2X",
"2X2X2X2X2X2X2X2X2X2X2X2X2X2X2X2X2X2X2X2X2X2X2X2X2X2X2X2X2X2X2X2X2X2X2X2X2X2X2X2X2X2X2X2X2X2X2X2X2X2X",
"2X2X2X2X2X2X2X2X2X2X2X2X2X2X2X2X2X2X2X2X2X2X2X2X2X2X2X2X2X2X2X2X2X2X2X2X2X2X2X2X2X2X2X2X2X2X2X2X2X2X",
"2X2X2X2X2X2X2X2X2X2X2X2X2X2X2X2X2X2X2X2X2X2X2X2X2X2X2X2X2X2X2X2X2X2X2X2X2X2X2X2X2X2X2X2X2X2X2X2X2X2X",
"2X2X2X2X2X2X2X2X2X2X2X2X2X2X2X2X2X2X2X2X2X2X2X2X2X2X2X2X2X2X2X2X2X2X2X2X2X2X2X2X2X2X2X2X2X2X2X2X2X2X",
"2X2X2X2X2X2X2X2X2X2X2X2X2X2X2X2X2X2X2X2X2X2X2X2X2X2X2X2X2X2X2Xr k F.G.u 2X2X2X2X2X2X2X2X2X2X2X2X2X2X",
"2X2X2X2X2X2X2X2X2X2X2X2X2X2X2X2X2X2X2X2X2X2X2X2X2X2X2X2X2X2XN.k y T.&X^.@ K.#X|.G.2X2X2X2X2X2X2X2X2X",
"2X2X2X2X2X2X2X2X2X2X2X2X2X2X2X2X2X2X2X2X2X2X2X2X2X2X2X2Xa U.7 . X T k._ ^ Z.=X@X>XP.h R 2X2X2X2X2X2X",
"2X2X2X2X2X2X2X2X2X2X2X2X2X2X2X2X2X2X2X2X2X2X2X2X2X2X2X2X'.(.; - F ;.w.r.a.k.D.8.@X%XW.#X_.2X2X2X2X2X",
"2X2X2X2X2X2X2X2X2X2X2X2X2X2X2X2X2X2X2X2X2X2X2X2X2X2X2Xi B.| =.4.w.e.y.d.d...V.S.@X+XM.Y.#X].2X2X2X2X",
"2X2X2X2X2X2X2X2X2X2X2X2X2X2X2X2X2X2X2X2X2X2XD 1 2X2X2X2 :.e.r.4.:.5.d.d.d.` W.#X:X).N.K.^.'.F.2X2X2X",
"2X2X2X2X2X2X2X2X2X2X2X2X2X2X2X2X2X2X2X2X2X2X! 8 4 ` ( @.y.s.<.^ L [ a.d.f.1.~.,X+XL.#X+X@XOXP.2X2X2X",
"2X2X2X2X2X2X2X2X2X2X2X2X2X2X2X2X2X2X2X2X2X2 G 2.a.t.{ _ s.d.^ @ 0 8 t.f.f.q.V.$XL._.!.b.`.&X^.2X2X2X",
"2X2X2X2X2X2X2X2X2X2X2X2X2X2X2X2X2X2X2X2X2X^ <.e.8.oXF.F p.s.) q g Y.0.f.f.i.L z d | =.,._ `.^.2X2X2X",
"2X2X2X2X2X2X2X2X2X2X2X2X2X2X2X2X2X2X2X2X2X@.r.8.#X&Xk , *.p.4 = g T.] f.s.e.#.! ,.w.:.+.,.V.).2X2X2X",
"2X2X2X2X2X2X2X2X2X2X2X2X2X2X2X2X2X2X2X2X  > o.[.F.a G + 9 z.d e i R ' d.y.r.w.5.O.S b n Y ../.2X2X2X",
"2X2X2X2X2X2X2X2X2X2X2X2X2X2X2X2X2Xy E.q o $ G.J.r 4 -.O x &X%XoX!.'. .e.4.$.J M c c v N I =.s 2X2X2X",
"2X2X2X2X2X2X2Xz 2X2X2X2X2X2X2XR./.w P.n.$ j P.'.^.' 0.5 y &X:X-X=X-XZ.;.U b c v m B V Z K ;.> 2X2X2X",
"2X2X2X2X2X2XN.T.h h 7 2X2Xj ). X$Xg E.^.* F.R.T.E.A.>.f q $X:X:X:X<X X( P n N V A S ! @.,.( 2X2X2X2X",
"2X2X2X2X2X2X_.#XT. XF.x M.h.l.c.T.i y }.g k m.W.J.Y.L f # }.=X:X,X1X&X .+.C P K ( *.;.=.F > 2X2X2X2X",
"2X2X2X2X2XK.J.y p E.H.B.7.q.~ 5 $ o 7 }.I.F.H.x R.`.l &   I.<X*X,X1X1XC.&./ @.,.,._ F b.z 2X2X2X2X2X",
"2X2X2X2Xn.@X).= e J.l 1.<.A.L.t     % W.(.n.k 3 7.X.{.n.o u :X=X:X<X:XR.( w.e.r.*.v.A.c.2X2X2X2X2X2X",
"2X2X2Xh +X*XL.q y y 6 ) >.b.k.' W - % `..XJ.d W q.u.x.).* # '.:X>X%Xx j { w.r.y.u.} g 2X2X2X2X2X2X2X",
"2X2X2X'.:X%Xx G.J.= 7 N.} Q ^ 0.j.a o M..XJ.h 6 L 2.#.B.= o F.%X<X^.0 z l ( 4.=.E 2X2X2X2X2X2X2X2X2X",
"2X2X2X'.%XR.J.OXy 2X2X2X2X] ) W.^./.= w E.J.; o q m.v.6 % a $ F.Q.g.3 3 2 H 8 6 2X2X2X2X2X2X2X2X2X2X",
"2X2X2X2X2Xp ^.x 2X2X2X2X2X2X] L 2X2X2X  r 2X2X2X2X2Xp # x K.2X2XD @.F < 2X2X2X2X2X2X2X2X2X2X2X2X2X2X",
"2X2X2X2X2X2X2X2X2X2X2X2X2X2X2X2X2X2X2X2X2X2X2X2X2X2X2X2X2X2X2X2X2X2X2X2X2X2X2X2X2X2X2X2X2X2X2X2X2X2X",
"2X2X2X2X2X2X2X2X2X2X2X2X2X2X2X2X2X2X2X2X2X2X2X2X2X2X2X2X2X2X2X2X2X2X2X2X2X2X2X2X2X2X2X2X2X2X2X2X2X2X",
"2X2X2X2X2X2X2X2X2X2X2X2X2X2X2X2X2X2X2X2X2X2X2X2X2X2X2X2X2X2X2X2X2X2X2X2X2X2X2X2X2X2X2X2X2X2X2X2X2X2X"
};
