/* XPM */
static char *result[] = {
/* columns rows colors chars-per-pixel */
"50 50 211 2 ",
"   c #010000",
".  c #0C0C0C",
"X  c #0B0100",
"o  c #170600",
"O  c #131313",
"+  c #1C1C1C",
"@  c #250C00",
"#  c #381B00",
"$  c #392202",
"%  c #372C18",
"&  c #030B21",
"*  c #081222",
"=  c #181721",
"-  c #291F20",
";  c #1D232D",
":  c #242424",
">  c #2C2B2C",
",  c #2F2A22",
"<  c #353535",
"1  c #3B3B3B",
"2  c #3B2F25",
"3  c #422300",
"4  c #543400",
"5  c #673D00",
"6  c #453E37",
"7  c #483A29",
"8  c #6C4300",
"9  c #774C01",
"0  c #7A5200",
"q  c #6A4B16",
"w  c #564222",
"e  c #594A3E",
"r  c #6C5223",
"t  c #484745",
"y  c #5E4F43",
"u  c #534D48",
"i  c #59514A",
"p  c #555554",
"a  c #5B5B5B",
"s  c #565656",
"d  c #625245",
"f  c #6B5A4B",
"g  c #665649",
"h  c #665D56",
"j  c #6B635C",
"k  c #6F6156",
"l  c #736356",
"z  c #7A695B",
"x  c #766659",
"c  c #74604F",
"v  c #565C65",
"b  c #696767",
"n  c #786D64",
"m  c #72736D",
"M  c #6F7274",
"N  c #737F74",
"B  c #7C7D7E",
"V  c #757677",
"C  c #BA0000",
"Z  c #9A291F",
"A  c #963027",
"S  c #95362A",
"D  c #972E26",
"F  c #D40500",
"G  c #C80000",
"H  c #874C00",
"J  c #8B5400",
"K  c #9D6900",
"L  c #A97400",
"P  c #B26A00",
"I  c #805E24",
"U  c #876522",
"Y  c #916925",
"T  c #826E5A",
"R  c #8D735D",
"E  c #9C614D",
"W  c #8D7561",
"Q  c #8A796A",
"!  c #937B67",
"~  c #947C69",
"^  c #877B73",
"/  c #A07561",
"(  c #985145",
")  c #BC8700",
"_  c #B28921",
"`  c #C68900",
"'  c #D88A00",
"]  c #DD9900",
"[  c #CD9000",
"{  c #E19C00",
"}  c #EBA400",
"|  c #E9A900",
" . c #F8AC00",
".. c #FFBC00",
"X. c #FFB700",
"o. c #C79024",
"O. c #E09B25",
"+. c #F3A824",
"@. c #EEA623",
"#. c #FFC300",
"$. c #FFCD00",
"%. c #FFD400",
"&. c #99826E",
"*. c #91837A",
"=. c #988575",
"-. c #A48E7D",
";. c #A7907E",
":. c #A8927F",
">. c #C89070",
",. c #C58D6F",
"<. c #7D7F80",
"1. c #7F8182",
"2. c #7A8399",
"3. c #848484",
"4. c #86888A",
"5. c #9C8E83",
"6. c #898C98",
"7. c #8C919A",
"8. c #9A9A9B",
"9. c #949597",
"0. c #9E9187",
"q. c #A18F87",
"w. c #AA9482",
"e. c #AB9B8C",
"r. c #A89687",
"t. c #B19B8A",
"y. c #AB9C92",
"u. c #B09E90",
"i. c #ABA39C",
"p. c #B4A294",
"a. c #BBA694",
"s. c #BEA997",
"d. c #B3A59B",
"f. c #BDAB9C",
"g. c #B9A99B",
"h. c #B6A18E",
"j. c #939BA6",
"k. c #9FA3AA",
"l. c #A4A4A4",
"z. c #ACACAC",
"x. c #A6AAAD",
"c. c #B6ACA4",
"v. c #BCB4AE",
"b. c #BDBFAC",
"n. c #B5B5B5",
"m. c #BDB7B1",
"M. c #BFB9B4",
"N. c #BDBDBD",
"B. c #B1B6BA",
"V. c #C3AF9E",
"C. c #C0A997",
"Z. c #C5B09F",
"A. c #CBB79E",
"S. c #C0AEA0",
"D. c #C5B2A2",
"F. c #C9B3A3",
"G. c #CCB6AC",
"H. c #CCB9AA",
"J. c #C5B0AA",
"K. c #D4BDAB",
"L. c #D1B8A5",
"P. c #C1BBB6",
"I. c #C4BFBA",
"U. c #D5BDB4",
"Y. c #DAC69E",
"T. c #FBDD9F",
"R. c #E6CF9E",
"E. c #FBE69F",
"W. c #CBC1BA",
"Q. c #D7C5BA",
"!. c #D3C9B7",
"~. c #E3D1A0",
"^. c #B8BFCB",
"/. c #B4BBD0",
"(. c #BCC2C9",
"). c #B9C1D3",
"_. c #C3C3C3",
"`. c #C3C6CA",
"'. c #CCCCCC",
"]. c #C9C7C6",
"[. c #D9CCC3",
"{. c #D8D1CC",
"}. c #CBCED1",
"|. c #C1C7D2",
" X c #CED0D2",
".X c #D1D1D1",
"XX c #DCD8D1",
"oX c #D4D6D9",
"OX c #D6D9DC",
"+X c #DADADB",
"@X c #DAD7D2",
"#X c #E2D4C9",
"$X c #E7DCD6",
"%X c #EAE2DC",
"&X c #C4CDE9",
"*X c #C8D3E9",
"=X c #DDDEE1",
"-X c #D5DDE8",
";X c #D2DBF6",
":X c #DFE0E2",
">X c #DAE0EB",
",X c #E2E3E4",
"<X c #E3E6EA",
"1X c #E6E8E9",
"2X c #EAEAEA",
"3X c #EEE5E1",
"4X c #EBEFF3",
"5X c #EEF2F5",
"6X c #FBFBFB",
"7X c #F2EAE6",
"8X c None",
/* pixels */
"8X8X8X8X8X8X8X8X8X8X8X8X8X8X8XF.3X$X7XH.e.,.,.>.>.>.>.>.,.w.f.3X$X7XU.=.8X8X8X8X8X8X8X8X8X8X8X8X8X8X",
"8X8Xe.J.J.D.G.G.J.-.*.d.U.G.Z.Z.$X#X%X[.( C F F F F F F G Z b.%X#X$XW.C.G.K.U.q.^ y.Q.G.G.S.G.a.8X8X",
"8Xf.H.s.V.D.s.C.t.n z :.w.w.w.w.;.;.;.e./ S D S A A A D S E e.:.;.;.w.w.w.w.t.=.l *.Z.C.V.S.a.F.D.q.",
"p.H.a.C.f.s.W 6 j j p n j b j j j j j j m N N N N N N N N m j j j j j j j j j j h n 6 c a.f.S.a.D.H.",
"e.V.D.f.-.f 6 6.(.x.`.`.`._.`.`.(.`.`.].`.`.].`.`.`.`.'.`.`.`.`.`.].`.`.`.`.`.}.z.N.x.u u ~ p.V.C.V.",
"u.V.D.D.l < B..XOXW..X.X.X.X.X.X.X'..X.X.X.X.X.X.X.X.X.X'..X.X.X.X.X.X.X'. X.X.X_.}.'.`.s d a.V.C.c.",
"u.Z.D.D.g a ,Xn.'..X'.'.'.'.'.'.'..X X X X'..X'. X X.X'.'..X'..X.X.X'.'. X'.'.'..XoXz.+X9.u a.V.C.V.",
"u.V.D.D.f p ,X+X'.'.'.'.'.'. X.X].]..X.X X.X.X.X.X.X.X.X.X.X.X.X'.].'.'.'.'.'.'.'.].+X2XB y a.V.s.f.",
"u.Z.D.D.f s ,X.X}.'. X'..X.X'.n. X}.z.n.n.n.n.n.n.M.n.z.n.n.n.n.n..X_.]..X X'. X'.}.'.1X<.y f.f.C.c.",
"u.V.D.D.f s .X_.W.^.(.W.N.N.M.}.n.t > t > < 1 : > > > < 1 t 1 + > 3._._.N.N.W.(.(.W._.oXN y s.Z.s.D.",
"u.V.D.D.f s OX'.].`._.].]._.'.5Xp   < + O : . . . . O > > > O . + O z.,X_._.]._._.].'.+X<.y s.Z.s.V.",
"u.V.D.D.f s +X X'.].'.'.'.'..X2Xu . 1 + > : O + O O < < < > . > 1   8.2X'.'.'.'.'.'.'.,XB y s.f.s.V.",
"u.V.D.D.g a <X X'.}.}.}.}.}.N.OX9.+   . O         O : : +   X :   < N._.'. X}.'.'.}.}.1X1.i s.Z.s.D.",
"u.Z.D.D.f u ].W.M.M.M.M.M.P.`.(.oXl.M 4.*.B 1.B 1.3.*.3.<.N 3.4.B N. X}._.M.P.P.M.P.W.'.m y s.Z.C.c.",
"u.V.Z.F.n , T &.~ ~ ~ ~ ~ R ;.W.}.>X5X5X1X,X,X,X,X:X:X=X:X:X<X4X5X=X'.d.! ! ~ ~ ! ! &.W 2 k g.Z.C.V.",
"u.V.D.D.c t W.P.m.m.m.m.M.M.r.W p.v.g.d.P.@X.X'. X X'. X XoXW.d.c.c.=.~ c.M.v.v.v.v.P.].b d s.Z.C.V.",
"u.Z.D.D.f a 4XOXoXoXoXoXoXOXOXv.=.! &.R i.OX'.'.'.'.'.'.'.OXc.R &.! e. XOXOXoXoXoXoXoX5X4.y s.Z.s.V.",
"u.Z.D.D.f s :X X`.'.'.'.'.'.}.OX'.W._._.].'.'.'.'.'.'.'.'.'.]._._.].oX.X'.'.'.'.'.'.'.,X<.y g.f.C.c.",
"u.Z.Z.D.f p :X}.'.'.'.'.'.'.'.].}.oXoX X}.'.'.'.'.'.'.'.'.'. X.X X X'.'.'.'.'.'.'.'.'.1XB y s.Z.s.S.",
"e.Z.Z.Z.f s %X.X'.'.'.'.'.'.'.'.'.'.'.'.'.'.'.'.'.'.'.'.'.'.'.'.'.'.'.'.'.'.'.'.'.'.'.,XB y s.Z.s.S.",
"p.Z.Z.D.f p :X'.'.'.'.'.'.'.'.'.'.'.'.'.'.'.'.'.'.'.'.'.'.'.'.'.'.'.'.'.'.'.'.'.'.'.'.1XB e s.f.C.f.",
"e.Z.D.D.f p :X.X'.'.'.'.'.'.'.'.'.'.'.'.'.'.].'.'.'.'.'.'.'.'.'.'.'.'.'.'.'.'.'.'.'.'.1X1.d a.Z.s.D.",
"u.Z.D.D.f p :X.X'.'.'.'.'.'.'.'.'.'.'.'.'.'.'.'.'.'.'.'.'.'.'.'.'.'.'.'.'.'.].'.'.'.'.,X<.y s.Z.C.Z.",
"e.Z.D.D.f p :X X'.'.'.'.'.'.'.'.'.'.'.'.'.'.'.'.'.'.'.'.'.'.'.'.'.'.'.'.'.'.'.'.'.'.'.,XB y s.Z.C.c.",
"p.!.!.D.g p :X.X'.'.'.'.'.'.'.'.'.'.'.'.'.'.'.'.'.'.'.'.'.'.'.'.'.'.'.'.'.'.'.'.'.'.'.1XB y g.H.L.F.",
"a.=.5.G.l p $X.X'.'.'.'.'.'.'.'.'.'.'.'.'.'.'.'.'.'.'.'.'.'.'.'.'.'.'.'.'.'.'.'.'.'.'.,XB g F.e.=.g.",
"*.u u 0.g s :X}.'.'.'.'.'.].'.'.'.'.'.'.'.'.'.'.'.'.].'.'.'.'.'.'.'.'.'.'.'.'.'.'.'.'.,X1.e r.h t ^ ",
"*.i u 0.g s ,X.X'.'.'.'.'.'.'.'.'.'.'.'.'.'.`.'.'.'.'.'.'.'.'.'.'.'.'.'.'.'.'.'.'.'.'.,XB u e.j u ^ ",
"p.q.5.H.c s =X.X'.'.'.'.'.'.'.'.'.'.'.'.'.'.'.'.'.'.'.'.'.'.'.'.'.'.'.'.'.'.'.'.'.'.'.,XB d F.e.5.g.",
"p.K.K.F.g s ,X}.'.'.'.'.'.'.'.'.'.'.'.'.'.'.'.'.'.'.'.'.'.'.'.'.'.'.'.'.'.'.'.'.'.'.'.1XB y a.L.F.D.",
"u.V.D.D.f s =X.X X X'.'.'.'.'.'.'.'.'.'.'.'.'.'.'.'.'.'.'.].'.'.].'.'.'.'.'.'.'.'.'.'.2X<.y s.V.s.c.",
"u.V.S.D.f s ,X'.'.].].'.'.'.'.'.'.].'.'.'.'.'.'.'.'.'.'.'.'.'.'.'.'.'.'.'.'.'.'.'.'.'.,X<.y s.Z.s.Z.",
"u.V.Z.F.g s $Xn.z.z.N.'.'.'.'.'.'.'.'.'.'.'.'.'.'.'.].'.'.'.'.'.'.'.'.'.'.'.'.N.z.z.n.:X1.y s.Z.s.D.",
"u.V.D.D.f a =Xn.l.z._.'.'.'.'.'.'..X'.'.'.'.'.'.'.'.'.'.'.'.'.'.'.'.'.'.'.'..XW.x.k.m.,X1.y a.D.s.f.",
"u.V.D.D.g a :Xn.z.z._..X.X}..X.X'..X.X}..X.X X X'. X'..X X'..X'..X.X.X'. X'..X(.z.l.n.,X3.y a.D.C.D.",
"u.V.D.D.f p .XN.n.n.B._.N.W.^.I.P.^._.I.I.N.W.^._.N.(.W.N.(.W.(.N.N.(.W.(.W._.N.n.n.n..XV y a.Z.s.S.",
"u.V.D.D.f p OX+X_.].`.W._._._._._._._._._._._._._._._._._._._._._._._._._._.W._.`._..X,XM y s.Z.s.S.",
"u.Z.D.D.g a OXN.:XoXOX+X+XoXoX+X+X+XoXoX+X+XoXoX+X+XOXoXoX+X@XoXoX+XOXOXoXOX+X+XOX:XN..X7.e s.Z.s.S.",
"u.V.Z.F.g n .Xx.)..XXX X/.).@X.X)./..X@X'./.|.XX.X)./.}.@X X).(.XX.X`./.}.@X'.).).%Xv.(.2.d a.Z.C.S.",
"u.V.D.D.n % > > _ o.2 & r +.U * - o.o., & U +.r * % o.O.w & 7 +.Y = + _ O.7 & w +.U ; > q x g.Z.s.S.",
"u.V.S.D.*.    ] } @   9 ..J   o } '     K ..5   @ |  .3   4 X.P     [  .#   5 ..K     P J h f.S.s.S.",
"u.V.F.F.n # ' `     ` %.5   4 $.)     { #.$   8 %.| o   K %.0   $ #.| o   L %.0   3 $.P X h V.S.s.V.",
"u.V.F.D.b 9 9   o { X.@   H ..0   #  .{ X   K $.L     ` X.#   8 #.L     [ X.#   8 #.K     T C.S.C.V.",
"u.V.S.J.k u j.9.Y.E.i.2.l.T.Y.2.8.Y.T.8.6.c.E.Y.7.7.F.E.g.2.i.T.~.6.7.A.E.d.2.i.T.~.2.l.n g s.V.C.c.",
"u.V.S.G.e v 6X X>X;X>X2X1X*X*X1X2X*X&X>X2X<X&X&X<X2X-X&X-X1X<X*X*X<X2X-X&X-X1X1X;X;X(.6Xj.6 C.Z.C.V.",
"u.V.D.C.W 6 M OX1Xn.+X,X,X,X:X,X,X,X,X,X,X,X,X,X,X,X,X,X,X,X,X,X:X,X:X,X,X,X,X,Xn.+X1X7.1 z t.Z.C.c.",
"p.Z.C.S.p.&.7 p 8.4.9.8.8.8.8.8.8.8.8.8.8.8.8.8.8.8.8.8.8.8.8.8.8.8.8.8.8.8.8.9.3.l.b 2 T u.g.V.s.D.",
"e.H.C.s.D.f.h.x l h f n k l l x l l l l l k f f c f f f c x l l k x l x l l z z i k l w.s.V.V.a.H.f.",
"8Xe.D.D.C.H.S.V.F.*.Q a.H.D.D.A.F.Z.F.F.C.K.#X[.Q.[.#X#XQ.C.D.F.D.D.D.Z.F.F.G.-.^ r.K.f.H.C.Z.D.p.8X",
"8X8X8Xd.f.a.a.V.f.*.^ u.D.C.f.f.V.C.f.f.a.D.[.[.[.[.[.#XU.a.f.f.f.C.f.V.C.V.D.=.*.r.H.g.a.f.g.8X8X8X"
};
