/* XPM */
static char *result[] = {
/* columns rows colors chars-per-pixel */
"50 50 96 2 ",
"   c #000000",
".  c #0C0A09",
"X  c #221E1B",
"o  c #26211D",
"O  c #2C2722",
"+  c #2E2925",
"@  c #342D28",
"#  c #3B332C",
"$  c #3D383D",
"%  c #403730",
"&  c #433A33",
"*  c #333444",
"=  c #4E4A46",
"-  c #554A41",
";  c #504B48",
":  c #57514E",
">  c #5E5248",
",  c #5A5552",
"<  c #5D5854",
"1  c #60544A",
"2  c #645A52",
"3  c #74675C",
"4  c #77695D",
"5  c #7A695B",
"6  c #7F6F61",
"7  c #7F7267",
"8  c #806F62",
"9  c #847466",
"0  c #897767",
"q  c #82746B",
"w  c #8B7A6B",
"e  c #907D6C",
"r  c #857B72",
"t  c #8A7D74",
"y  c #BB9631",
"u  c #FFE200",
"i  c #FFE900",
"p  c #8B8077",
"a  c #938172",
"s  c #94837B",
"d  c #97887E",
"f  c #9D8B7D",
"g  c #A28E7C",
"h  c #A6917F",
"j  c #BDB56C",
"k  c #BAB170",
"l  c #E6B444",
"z  c #C6AB74",
"x  c #9C8D82",
"c  c #9E8E8A",
"v  c #9F9286",
"b  c #A29385",
"n  c #A99483",
"m  c #A49589",
"M  c #A8958E",
"N  c #AC9B8C",
"B  c #B39E8B",
"V  c #AF9E91",
"C  c #B09F90",
"Z  c #B6A394",
"A  c #BAA595",
"S  c #BFA895",
"D  c #B7A699",
"F  c #B9A799",
"G  c #BCA99A",
"H  c #BFACA2",
"J  c #B3A6B4",
"K  c #C2AD9C",
"L  c #C8AE9D",
"P  c #C6B09E",
"I  c #C8B19F",
"U  c #C3AFA4",
"Y  c #C0ADA8",
"T  c #C5B1A1",
"R  c #CAB5A4",
"E  c #CDB8A7",
"W  c #C6B4AA",
"Q  c #CCB6AC",
"!  c #CDB9AC",
"~  c #D0B9A7",
"^  c #D5BDAB",
"/  c #D3BBB2",
"(  c #D6C0AD",
")  c #D9C5B6",
"_  c #DEC5BB",
"`  c #D7CBC3",
"'  c #DCD1CA",
"]  c #E5D6CB",
"[  c #EADACF",
"{  c #E7DBD3",
"}  c #EADDD4",
"|  c #EADED9",
" . c #EBE1DB",
".. c #EEE6E2",
"X. c #F1EAE6",
"o. c None",
/* pixels */
"o.o.o.o.o.o.o.o.o.o.o.o.o.o.o.W X. .X.G B k j j j j j j k B K ..| X.Q o.o.o.o.o.o.o.o.o.o.o.o.o.o.o.",
"o.o.Z W W U Q ! H x s H / Q L E | } | J y u i i i i i i u y J | ]  .E K Q ! ! M q c _ ! U T W C o.o.",
"f H E S L U A L I d f I W L T T K K L W z l l l l l l l l z Y L K K P T T T E B t C ~ A H P S R W n ",
"G E Z K F K g - & + + & # # # # # @ # # $ * * * * * * * * $ # # # # # # # # % @ + & - g G G K A T U ",
"Z K T F f 5 X                                                                         X 5 g Z U G G ",
"Z T T K 9                                                                                 w S U K A ",
"Z P P T 5                                                                                 9 G T K G ",
"Z K T P 7                                                                                 0 G P K F ",
"Z P T T 5                                                                                 0 K U K G ",
"Z K T T 9                                                                                 0 S T K A ",
"Z P T T 5                                                                                 0 G P G G ",
"Z H T T 7                                                                                 0 G T K D ",
"Z P H T 7                                                                                 0 G P K G ",
"Z G P T 7                                                                                 0 K U K F ",
"Z P P T 6                                                                                 0 G T K G ",
"Z P P T 6                                                                                 0 G T K A ",
"Z P T T 6                                                                                 0 G T K F ",
"Z K T T 6                                                                                 0 G T K F ",
"Z K P T 6                                                                                 0 K T K A ",
"Z P T T 8                                                                                 0 S T K G ",
"Z K T T 8                                                                                 0 G T K F ",
"Z K T T 6                                                                                 0 G T G G ",
"Z G T T 6                                                                                 0 G T K F ",
"Z P T T 6                                                                                 0 G T K G ",
"G ( ( T 7                                                                                 0 G ^ ~ G ",
"Z f m E 0                                                                                 e T m f A ",
"r ; : v 3                                                                                 7 x < = r ",
"t ; , v 6                                                                                 9 b < ; t ",
"Z x m E 0                                                                                 w T m x Z ",
"Z ^ ^ T 5                                                                                 0 K ^ ~ H ",
"Z P T T 6                                                                                 0 G T K G ",
"Z K T T 6                                                                                 0 G P K D ",
"Z P T T 8                                                                                 0 G T K G ",
"Z K T T 6                                                                                 0 G T G G ",
"Z P T T 6                                                                                 0 G T K G ",
"Z K T T 6                                                                                 0 G P G G ",
"Z G T T 7                                                                                 0 G T K A ",
"Z P T T 7                                                                                 w S U K F ",
"Z K T T 5                                                                                 0 G T K F ",
"Z P T T 9                                                                                 0 G P K G ",
"Z P T T 7                                                                                 0 G T K A ",
"Z K T T 5                                                                                 w G L K F ",
"Z K P T 9                                                                                 0 G T K F ",
"Z K T T 6                                                                                 0 G T K F ",
"Z K T T 5                                                                                 8 K P K F ",
"Z P T G w o                                                                             o a Z T K G ",
"G P K G N n > .                                                                     . 1 h N G G K G ",
"Z ! S G T F A a w 2 4 w 7 9 7 9 9 7 9 7 0 8 5 5 5 5 5 5 6 9 9 9 9 9 7 9 7 7 w 9 2 9 a Z F U K S ! D ",
"o.N T T K E G R E x a E ^ E ~ ~ ~ ~ ^ ~ R ) [ ] ] ] ] } ) R ^ E E E ~ ~ ~ ^ E n t N ^ G E K T T V o.",
"o.o.o.D G F G K D p t F U G G G G G G H A W ' _ ` ` ` ' ! Z G G K G G G G U G x r x E G A G D o.o.o."
};
