/* XPM */
static char *result[] = {
/* columns rows colors chars-per-pixel */
"50 50 210 2 ",
"   c #010000",
".  c #0C0C0C",
"X  c #0D0200",
"o  c #1A0900",
"O  c #160200",
"+  c #151515",
"@  c gray11",
"#  c #240D00",
"$  c #361A00",
"%  c #2C1300",
"&  c #362710",
"*  c #040C21",
"=  c #0C0E20",
"-  c #0B1322",
";  c #151E2D",
":  c #261C20",
">  c #252525",
",  c #2B2B2B",
"<  c #2C2422",
"1  c #382C23",
"2  c #3C3427",
"3  c #353535",
"4  c #3B3B3B",
"5  c #593900",
"6  c #633B00",
"7  c #46392A",
"8  c #453D35",
"9  c #774C00",
"0  c #68490F",
"q  c #5C4C3D",
"w  c #43413E",
"e  c #614A23",
"r  c #775A22",
"t  c #6C5421",
"y  c #3D4041",
"u  c #434343",
"i  c #4E4B49",
"p  c #5E4F41",
"a  c #524D49",
"s  c #555453",
"d  c #5B5B5B",
"f  c #595756",
"g  c #57524F",
"h  c #635344",
"j  c #6B5A4B",
"k  c #65574A",
"l  c #685C53",
"z  c #705F51",
"x  c #6B635C",
"c  c #736356",
"v  c #73665A",
"b  c #7B6A5B",
"n  c #545A62",
"m  c #626263",
"M  c #6A696C",
"N  c #6A6767",
"B  c #7B6C62",
"V  c #746B65",
"C  c #636474",
"Z  c #696C73",
"A  c #6D7278",
"S  c #7D7D7D",
"D  c #727273",
"F  c #874C00",
"G  c #845500",
"H  c #8B5400",
"J  c #955900",
"K  c #976600",
"L  c #A76E00",
"P  c #AC7900",
"I  c #805E24",
"U  c #8A6D22",
"Y  c #C87100",
"T  c #826D59",
"R  c #8E735E",
"E  c #8D7662",
"W  c #8A7868",
"Q  c #927A66",
"!  c #947C69",
"~  c #887C73",
"^  c #806E60",
"/  c #B78400",
"(  c #B98823",
")  c #BD9430",
"_  c #C98C00",
"`  c #D78900",
"'  c #DE9C00",
"]  c #D99600",
"[  c #E99E00",
"{  c #E8A300",
"}  c #F5AC00",
"|  c #FAA600",
" . c #FFBD00",
".. c #FFB500",
"X. c #C99726",
"o. c #C79926",
"O. c #D59425",
"+. c #F4A824",
"@. c #FFC400",
"#. c #FFCE00",
"$. c #FFD700",
"%. c #FFE900",
"&. c #FFE400",
"*. c #AA8F56",
"=. c #99826E",
"-. c #948273",
";. c #968577",
":. c #8F8379",
">. c #A48F7E",
",. c #A7907E",
"<. c #BDB56D",
"1. c #BAAF71",
"2. c #767F98",
"3. c #7B859C",
"4. c #7F8488",
"5. c #848484",
"6. c #8D8D8D",
"7. c #9C8D82",
"8. c #918281",
"9. c #9E9185",
"0. c #858A99",
"q. c #8E9197",
"w. c #9A9A9B",
"e. c #95969A",
"r. c #AA9482",
"t. c #A7978A",
"y. c #B19B88",
"u. c #AC9D96",
"i. c #B09E90",
"p. c #B49F9A",
"a. c #A08F82",
"s. c #AEA59C",
"d. c #B5A395",
"f. c #BAA595",
"g. c #BDAB9C",
"h. c #B8A798",
"j. c #BAA996",
"k. c #9EA3AB",
"l. c #ABABAC",
"z. c #A5A6A6",
"x. c #B6ACA3",
"c. c #BBB4AD",
"v. c #B1B1AF",
"b. c #B5B5B5",
"n. c #BDB7B1",
"m. c #BFB9B4",
"M. c #BDBDBD",
"N. c #B7B3BC",
"B. c #B4A7B3",
"V. c #9199A6",
"C. c #C3AE9E",
"Z. c #C0A997",
"A. c #C5B09F",
"S. c #CCBB9E",
"D. c #C4AEA2",
"F. c #C5B1A2",
"G. c #C9B4A3",
"H. c #CCB5AC",
"J. c #CDBAAC",
"K. c #C6B0AB",
"L. c #D5BEAC",
"P. c #D0B9A6",
"I. c #C1BBB6",
"U. c #C6BFB8",
"Y. c #D6BEB4",
"T. c #D9C69E",
"R. c #E7CC9E",
"E. c #FDE49F",
"W. c #F8E69F",
"Q. c #D8C1AD",
"!. c #C5C1BC",
"~. c #D8C7BB",
"^. c #E4CABF",
"/. c #B4BBD0",
"(. c #B4BDCF",
"). c #BEC3CB",
"_. c #BCC3D3",
"`. c #C3C3C2",
"'. c #C3C6C9",
"]. c #CCCCCC",
"[. c #C8C7C6",
"{. c #D8CCC3",
"}. c #DCD1CA",
"|. c #CBCED1",
" X c #C4C9D2",
".X c #CED0D2",
"XX c #D1D1D1",
"oX c #DAD6D1",
"OX c #D4D6D9",
"+X c #D6D9DC",
"@X c #DADBDB",
"#X c #DCD8D2",
"$X c #E3D4C9",
"%X c #E8DDD6",
"&X c #EAE1DC",
"*X c #C4CDE9",
"=X c #CAD4EA",
"-X c #DEDFE0",
";X c #D6DDEA",
":X c #D1DAF6",
">X c #DEE0E1",
",X c #DBE1EC",
"<X c #E2E3E4",
"1X c #E4E6EA",
"2X c #EAEAEA",
"3X c #EBE8E6",
"4X c #EAEEF2",
"5X c #EEF2F5",
"6X c #FBFBFB",
"7X c None",
/* pixels */
"7X7X7X7X7X7X7X7X7X7X7X7X7X7X7XD.3X%X3XG.y.<.<.<.<.<.<.<.<.y.x.3X&X&XG.7X7X7X7X7X7X7X7X7X7X7X7X7X7X7X",
"7X7Xt.K.H.D.H.H.K.;.:.s.Y.H.C.C.%X$X&XN.*.$.%.&.%.%.%.%.&.o.B.&X%X&XG.A.J.J.H.u.x 8.^.H.D.G.H.i.7X7X",
"7Xg.G.j.C.F.f.Z.y.B b ,.r.r.r.r.a.r.,.t.*.X.X.X.X.X.X.o.X.*.r.r.,.,.,.,.r.r.y.-.l -.C.f.D.C.j.G.F.7X",
"d.J.f.C.g.Z.Q 8 x x x V x x N v z x l v M C C C C C C C C M x x x x x x x x x x N V 8 T j.g.C.f.G.x.",
"i.C.D.g.>.j 8 q.).z.[.'.'.'.'.'.'.'.'.'.'.'.`.'.'.'.'.'.'.'.'.'.'.'.'.[.'.'.'.'.l.).w.w h ;.h.F.C.d.",
"i.C.F.F.c 3 b..XOX!.XXXXXXXXXXXXXXXXXXXXXXXXXXXXXXXXXXXXXXXXXXXXXXXXXXXXXXXXXXXX!.XX].'.u k C.F.C.d.",
"i.C.A.G.h m >Xv.].XX].].].].].]..XXX.X.X.X].XXXXXXXXXX].].XX].].XX].].].].].].].XXXXl.<XD q x.A.C.d.",
"i.C.A.F.k s 1X@X].].].].].]..XXX`.[.XXXXXXXXXXXXXXXXXXXXXXXXXXoX].[.XX].].].].].].].@X2Xx p C.A.C.d.",
"i.A.A.F.k f <XXX.X.X]..X].XX].b.XX.Xl.b.b.b.b.b.b.N.b.b.b.b.b.b.M.XXM.].XX].].XXXXXXXX1Xm q A.F.C.d.",
"i.C.A.F.j s XX`.M.!.(.!.M.M.m.|.b.4 3 u , 3 3 > , , , 4 4 w 4 @ 3 6.[.M.M.M.`.M.M.M.M.OXm h A.A.C.d.",
"i.C.A.F.j f @X[.[.[.!.[.[.[.].5Xs   3 @ + > . . .   + , , , . . + , |.oX[.`.[.`.[.[.[.>Xm h F.F.A.d.",
"i.A.F.F.j s @X.X].].].].].].XX2Xf . 3 @ 3 > + @ + @ 3 3 3 > + , , + M.-X|.].].].].].|.>Xm p g.A.C.d.",
"i.C.F.F.j d ,X.X].]..X.X.X|.M.OXe.@   . +         @ > @ @   . >   u XX`.|.|.|.|.|.|.|.,XM q A.A.C.d.",
"i.A.F.F.j i ~.!.m.m.m.m.n.m.].'..Xz.D 5.:.S S S 4.5.5.5.5.S 5.S 5.`.|.|.!.n.I.I.m.I.!.XXf h A.F.C.d.",
"i.C.A.F.B < T =.! Q Q ! ! E >.M.|.1X5X5X<X<X<X<X<X%X&X-X<X<X2X4X5X+X].i.=.R -.E =.=.=.R 2 x A.A.C.d.",
"i.C.A.F.z i !.I.n.n.n.n.m.m.t.R u.c.x.h.!.OXXX.X|..X].XX].XXI.s.x.s.=.=.v.m.c.c.x.n.n.~.f k g.F.C.d.",
"i.A.A.F.j d 4X@XOX.XOXOXOX+XOXc.=.Q =.R x.+X].].].].].].].OXu.R =.! s..X+XOXOXOXOXOX+X5XZ q g.A.C.d.",
"i.A.A.F.j s -X].|.].].].].]..XOX].`.[.`.[.].].].].].].].].].[.`.`.[.OXXX].].].].].]..X<Xm p A.A.C.f.",
"i.A.A.F.j s -XXX].].].].].].].]..XXXXXOX].].].].].].].].].]..XOXXXXX].[.].].].].].].].<Xm q g.A.C.d.",
"i.A.A.A.j s -XXX].].].].].].].].].].].].].].].].].].].].].].].].].].].].].].].].].].XX<Xm h F.A.C.d.",
"i.A.A.A.j s -X.X].].].].].].].].].].].].].].].].].].].].].].].].].].].].].].].].].].].<Xm h A.F.C.d.",
"i.A.A.F.j s -XXX].].].].].].].].].].].].].].].].].].].].].].[.].].].].].].].].].].].XX<Xm q A.A.C.d.",
"i.A.A.F.j s -XXX].].].].].[.].].].].].].].].].].].].].].].].].].].].].].].].].].].].].<Xm q A.A.C.d.",
"i.A.A.F.j s -X].].].].].].].].].].].].].].].].].].].].].].].].].].].].].].].].].].].].<Xm h A.F.C.d.",
"d.P.Q.G.k s >XXX].].].].].].].].].].].].].].].].].].].].].].].].].].].].].].].[.].].XX1Xm q x.Q.L.j.",
"d.9.9.K.c s -XXX].].].].].].].].[.].].].].].].].].].].].].].].].].].].].].].].].].].].<Xm h P.t.;.d.",
":.a a 9.k s -X.X].[.].].].].].].].].].].].].].].].[.].].].].].].].].].].].].].].].].].<Xm p 9.a a ~ ",
";.a a 9.k s -XXX].].].].].].].].].].].].].].].].].].].].].].].].].].].].].].].].].].].1Xm p t.g a ~ ",
"d.9.9.G.c s @XXX].].].].].].].].].].].].].].].].].].].].].].].].].].].[.].].].].].].].<Xm h G.t.;.d.",
"i.L.L.G.j s &XXX].].].].].].].].].].].].[.].].].].].].].].].[.].].].].].].].].].].].XX<Xm p F.L.Q.j.",
"i.C.A.F.k s -X.X.X.X.X].].].].].].].].].].].].].].].].].].].].].].].].].].].].].]..XXX<Xm p C.F.C.d.",
"i.C.F.G.j f >X].].[.[.].].[.].].].].].].].].].].].].].].].].].].].].].].].].].].[.].].<Xm p F.F.C.d.",
"i.A.A.F.k f @XM.l.l.M.].].].].].].].].].].].].].].].].].].].].].].].].].].].XX`.l.l.b.@XN p F.A.C.d.",
"i.C.F.F.j f @Xb.z.l.M.].].].].].].].].].].].].].].].].].].].].].].].].].].].XX`.z.z.v.@XN p A.F.C.d.",
"i.C.A.F.j d >Xb.l.l.M.XX].XXXX.X.X.X.X.X].XXXXXX.X.X.X.X|.XXXX].XX].].XX|.|.OX`.l.z.b.1XM q g.F.C.d.",
"i.C.F.F.j s XXM.b.b.M.`.!.M.).!.`.M.!.`.!.M.M.`.M.`.M.!.`.U.`.`.`.`.M.`.U.`.`.m.b.b.N.oXd h A.A.C.d.",
"i.C.C.F.j s @XOX[.[.'.`.`.`.`.'.`.`.`.`.`.`.`.`.`.`.`.`.`.`.`.`.`.`.`.`.`.`.`.[.[.'.OX>Xd h A.F.C.d.",
"i.A.F.F.k d @XM.@XOXOX@XOXOXOX@X@XOXOXOX@X+XOXOX@X@XOXOXOX@XOXOX+XOXOXOX+XOX@XOXOX>XM.@XZ q A.A.A.d.",
"i.C.F.G.k x #Xk._.XX#X|./.'.#XXX'./.XXoX]./. XoXXX/./.].#X].(.'.oXXX'./.XXoX]./._.&Xb.).Z q A.F.C.d.",
"i.C.A.F.^ 1 , , ( O.1 * r +.r - < X.( > = U +.e * 7 O.O.7 * e +.I - : X.O.2 * t +.r ; 2 t V g.A.C.d.",
"i.C.F.F.-.    ] { #   G  .H   o { ]     L ..6   $ } | $   6 ..J   X ' [ #   9  .H   O Y 9 m D.D.C.d.",
"i.A.A.F.D $ ` _     _ #.5   5 #./   X {  .$   9 $.{ X   P #.0   5 #.]     / #.0   5 #.J   B D.F.C.d.",
"i.A.A.F.M 9 F   o ' } o   H @.9   $ } ]     P #.K     _ ..%   G @.K   o ' } %   H @.G     W C.F.C.d.",
"i.C.A.F.z a V.e.Q.W.s.3.s.E.S.2.e.R.W.e.0.x.E.T.0.q.S.E.s.3.s.E.T.3.e.T.W.s.3.s.E.T.3.z.l k C.A.C.d.",
"i.A.A.G.q n 6X.X,X:X,X2X1X*X=X2X2X=X*X,X2X,X*X*X1X2X;X*X;X2X1X*X*X1X2X;X*X,X2X1X:X:X].6XA 7 G.F.C.d.",
"i.C.F.g.W 8 A OX2Xb.@X<X1X<X<X>X<X<X<X<X<X<X<X<X<X<X<X<X<X<X<X>X<X>X<X<X>X>X1XOXb.1X>X4.4 T h.G.C.d.",
"i.C.Z.D.d.=.7 s e.6.q.w.w.w.w.w.w.w.w.w.w.w.w.w.w.w.w.w.w.w.w.w.w.w.w.w.w.w.w.6.5.z.d 2 E d.g.C.C.h.",
"i.L.Z.f.F.g.d.b c k c B c c v c c c c c v c j j z j j j z v c c c c v c c v b b l c c y.g.F.Z.f.J.d.",
"7Xt.F.F.Z.G.D.A.G.-.W d.G.G.A.A.S.G.F.F.Z.L.$X$X{.~.$X$XQ.C.G.G.F.G.A.A.G.G.A.>.v 7.Q.g.H.C.F.F.i.7X",
"7X7X7Xd.x.f.g.C.g.:.~ i.D.C.g.g.C.Z.g.g.f.H.}.{.{.~.~.}.J.f.g.g.g.g.g.g.C.C.g.a.V ;.P.g.f.g.d.7X7X7X"
};
