/* XPM */
static char *result[] = {
/* columns rows colors chars-per-pixel */
"50 50 217 2 ",
"   c #000000",
".  c #0C0C0C",
"X  c #090905",
"o  c #151515",
"O  c #191A1B",
"+  c #0C0C0F",
"@  c #251B00",
"#  c #362901",
"$  c #24221B",
"%  c #3A330C",
"&  c #14172A",
"*  c #01002A",
"=  c #262628",
"-  c #333229",
";  c #3C3C3C",
":  c #373732",
">  c #2E2D31",
",  c #610000",
"<  c #740000",
"1  c #443705",
"2  c #4D3E0C",
"3  c #700733",
"4  c #3B4100",
"5  c #5A4A03",
"6  c #745A00",
"7  c #6A580D",
"8  c #756701",
"9  c #78790E",
"0  c #43423D",
"q  c #5C5A3A",
"w  c #67512C",
"e  c #70722F",
"r  c #2E3243",
"t  c #353861",
"y  c #3C446D",
"u  c #484745",
"i  c #4D4C57",
"p  c #535352",
"a  c #5A5952",
"s  c #52555F",
"d  c #53524E",
"f  c #67655D",
"g  c #78714F",
"h  c #454576",
"j  c #5E6273",
"k  c #6C6B65",
"l  c #6A6768",
"z  c #706F68",
"x  c #7A776C",
"c  c #626377",
"v  c #7C7973",
"b  c #7E7D7A",
"n  c #75757C",
"m  c #6F7273",
"M  c #810000",
"N  c #A50000",
"B  c #982900",
"V  c #9F3800",
"C  c #A03900",
"Z  c #BF2E36",
"A  c #DD0800",
"S  c #DF0000",
"D  c #DC1100",
"F  c #CD2800",
"G  c #E13A00",
"H  c #D8273D",
"J  c #B24700",
"K  c #867901",
"L  c #9D7D00",
"P  c #957300",
"I  c #877416",
"U  c #937613",
"Y  c #AB7C00",
"T  c #A87B06",
"R  c #8E4D3D",
"E  c #8B7938",
"W  c #866B2B",
"Q  c #CF7600",
"!  c #E66D00",
"~  c #A03648",
"^  c #927349",
"/  c #B7794A",
"(  c #817F7F",
")  c #DF4E56",
"_  c #7C8028",
"`  c #958906",
"'  c #968713",
"]  c #AE8C00",
"[  c #B48600",
"{  c #B78900",
"}  c #B99802",
"|  c #B0940A",
" . c #B8A800",
".. c #B6AA14",
"X. c #A5B00D",
"o. c #908624",
"O. c #A7953A",
"+. c #A2992C",
"@. c #B7A730",
"#. c #C68F00",
"$. c #CAAC00",
"%. c #C9A500",
"&. c #D6A801",
"*. c #C8B301",
"=. c #DABC00",
"-. c #DBBB08",
";. c #C2BB18",
":. c #E7B900",
">. c #F6B700",
",. c #FFAE00",
"<. c #CAA92E",
"1. c #C9C800",
"2. c #DAC900",
"3. c #DCC515",
"4. c #CFD900",
"5. c #EECA00",
"6. c #E8C500",
"7. c #FCC500",
"8. c #FBC900",
"9. c #E5D600",
"0. c #EBD905",
"q. c #FED600",
"w. c #FEDC00",
"e. c #F1D304",
"r. c #ECC018",
"t. c #E7E400",
"y. c #FEE400",
"u. c #FEEA00",
"i. c #FFF400",
"p. c #FFFE00",
"a. c #DED433",
"s. c #E6D124",
"d. c #F5F129",
"f. c #998645",
"g. c #A3864E",
"h. c #A5964A",
"j. c #AFA657",
"k. c #948A67",
"l. c #9A9966",
"z. c #848175",
"x. c #87857A",
"c. c #909577",
"v. c #AA986B",
"b. c #A0937C",
"n. c #B9AE6C",
"m. c #ACA978",
"M. c #B3AC7F",
"N. c #AAB177",
"B. c #DDC448",
"V. c #F3CA42",
"C. c #DAD06F",
"Z. c #737488",
"A. c #767A92",
"S. c #6E7185",
"D. c #595FB4",
"F. c #7578B1",
"G. c #B47992",
"H. c #CD7A9A",
"J. c #7F878D",
"K. c #8E8C84",
"L. c #898885",
"P. c #908E84",
"I. c #94928C",
"U. c #979487",
"Y. c #9B9997",
"T. c #8E8D9B",
"R. c #A39F8E",
"E. c #A59996",
"W. c #A5A39C",
"Q. c #A8A598",
"!. c #B6B49F",
"~. c #B4B286",
"^. c #9997A6",
"/. c #9194AF",
"(. c #97A4B0",
"). c #AAA9A4",
"_. c #B0AEA9",
"`. c #B3B2AB",
"'. c #B9B6AC",
"]. c #BDB9A9",
"[. c #ABACB4",
"{. c #BCBAB5",
"}. c #B2AAB6",
"|. c #C39590",
" X c #D6BF88",
".X c #C3BFB5",
"XX c #C3BFAE",
"oX c #C4C9AC",
"OX c #C5C3B9",
"+X c #D8CEB2",
"@X c #ECE1B6",
"#X c #8A92CC",
"$X c #B6B8C7",
"%X c #D0B7CD",
"&X c #BBCAC4",
"*X c #C3C3C1",
"=X c #CBC9C6",
"-X c #D1CFCD",
";X c #D7D5C7",
":X c #DDDDDA",
">X c #D4D4D5",
",X c #C9CBD8",
"<X c #E2DFD1",
"1X c #DBEDD7",
"2X c #E5E3DC",
"3X c #E6E3D6",
"4X c #D8D9F7",
"5X c #C6CBE4",
"6X c #DEF0EE",
"7X c #EAEAE8",
"8X c #F7F4EB",
"9X c #E7EAFA",
"0X c #FBFBF3",
"qX c #FFFFFF",
"wX c #F5F6F9",
"eX c #EFF0F4",
"rX c None",
/* pixels */
"rXrXrXrXrXrXrXrXrXrXrXrXrXrXrXrXrXrXrXrXrXrXrXrXrXrXrXrXrXrXrXrXrXrXrXrXrXrXrXrXrXrXrXrXrXrXrXrXrXrX",
"rXrXrXrXrXrXrXrXrXrXrXrXrXrXrXrXrXrXrXrXrXrXrXrXrXrXrXrXrXrXrXrXrXrXrXrXrXrXrXrXrXrXrXrXrXrXrXrXrXrX",
"rXrXrXrXrXrXrXrXrXrXrXrXrXrXrXrXrXrXrXrXrXrXrXrXrXrXrXrXrXrXrXrXrXrXrXrXrXrXrXrXrXrXrXrXrXrXrXrXrXrX",
"rXrXrXrXrXrXrXrXrXrXrXrXrXrXrXrXrXrXrXrXrXrXrXrXrXrXrXrXrXrXrXrXrXrXrXrXrXrXrXrXrXrXrXrXrXrXrXrXrXrX",
"rXrXrXrXrXrXrXrXrXrXrXrXrXrXrXrXrXrXrXrXrXrXrXrXrXrXrXrXrXrXrXrXrXrXrXrXrXrXrXrXrXrXrXrXrXrXrXrXrXrX",
"rXrXrXrXrXrXrXrXrXrXrXrXrXrXrXrXrXrXrXrXrXrXrXrXrXrXrXrXrXrXrXrXrXrXrXrXrXrXrXrXrXrXrXrXrXrXrXrXrXrX",
"rXrXrXrXrXrXrXrXrXrXrXrXrXrXrXrXrXrXrXrXrXrXrXrXrXrXrXrXrXrXrXrXrXrXrXrXrXrXrXrXrXrXrXrXrXrXrXrXrXrX",
"rXrXrXrXrXrXrXrXrXrXrXrXrXrXrXrXrXrXrXrXrXrXrXrXrXrXrXrXrXrXrXrXrXrXrXrXrXrXrXrXrXrXrXrXrXrXrXrXrXrX",
"rXrXrXrXrXrXrXrXrXrXrXrXrXrXrXrXrXrXrXrXrXrXrXrX; : rXrXrXrXrXrXrXrXrXrXrXrXrXrXrXrXrXrXrXrXrXrXrXrX",
"rXrXrXrXrXrXrXrXrXrXrXrXrXrXrXrXrXrXrXrXrX= _.=X*X-X>X}.Z.rXrXrXrXrXrXrXrXrXrXrXrXrXrXrXrXrXrXrXrXrX",
"rXrXrXrXrXrXrXrXrXrXrXrXrXrXrXrXrXrXrXrX; 0X0X].OXqX$XoX;X!.- rXrXrXrXrXrXrXrXrXrXrXrXrXrXrXrXrXrXrX",
"rXrXrXrXrXrXrXrXrXrXrXrXrXrXrXrXrXrXrXrXx ;Xx I.8XP.L $.%.*.e.K rXrXrXrXrXrXrXrXrXrXrXrXrXrXrXrXrXrX",
"rXrXrXrXrXrXrXrXrXrXrXrXrXrXrXrXrXrXrXK.>X`.a W.9XI w.Q F G %.u.# rXrXrXrXrXrXrXrXrXrXrXrXrXrXrXrXrX",
"rXrXrXrXrXrXrXrXrXrXrXrXrXrXrXrXrXrX.XqXeXqX:Xz.$XO.q.B < S Y =.~.t rXrXrXrXrXrXrXrXrXrXrXrXrXrXrXrX",
"rXrXrXrXrXrXrXrXrXrXrXrXrXrXrXrXrXb qX X{ ~.qX=Xc O.q.C < A [ %.@.~.rXrXrXrXrXrXrXrXrXrXrXrXrXrXrXrX",
"rXrXrXrXrXrXrXrXrXrXrXrXrXrXrXrXrX).4X}.g.W.9XqX#X5 u.C M A [ $.U +Xr rXrXrXrXrXrXrXrXrXrXrXrXrXrXrX",
"rXrXrXrXrXrXrXrXrXrXrXrXrXrXrXrXrX2 ..@.h.O.f.b.x 8 i.V M A [ =.^ Q.% rXrXrXrXrXrXrXrXrXrXrXrXrXrXrX",
"rXrXrXrXrXrXrXrXrXrXrXrXrXrXrXrX*X^ 5.p.u.i.9.2.&.7.w.V M A Y 6.:.t.9 rXrXrXrXrXrXrXrXrXrXrXrXrXrXrX",
"rXrXrXrXrXrXrXrXrXrXrXrXrXrXrXU.qXh.>.u.i.u.p.p.u.8.q.B < S Y 2.q.p.8 rXrXrXrXrXrXrXrXrXrXrXrXrXrXrX",
"rXrXrXrXrXrXrXrXrXrXrXrXrXrXrXQ.A.f.8.8.p.p.p.p.p.y.q.J N A [ 5.u.p.6 rXrXrXrXrXrXrXrXrXrXrXrXrXrXrX",
"rXrXrXrXrXrXrXrXrXrXrXrXrXrXrXz.  7 q.>...@.} 1.4.9.&.#.#.#.} =. .*.5 rXrXrXrXrXrXrXrXrXrXrXrXrXrXrX",
"rXrXrXrXrXrXrXrXrXrXrXrXrXrXrXz.  5 y.6.e 3 H.%XR c.m.m.m.m.~.^ G.^ 2 rXrXrXrXrXrXrXrXrXrXrXrXrXrXrX",
"rXrXrXrXrXrXrXrXrXrXrXrXrXrXrXR.& w w.q.5 , Z ) Z &XqXqXqXqXqX~ H / 4 rXrXrXrXrXrXrXrXrXrXrXrXrXrXrX",
"rXrXrXrXrXrXrXrXrXrXrXrXrXrXrXP.qXf.7.w.] w 3 < R 1X8X7X8XwXqX|., T 8 rXrXrXrXrXrXrXrXrXrXrXrXrXrXrX",
"rXrXrXrXrXrXrXrXrXrXrXrXrXrXrXrXwXn.>.i.p.i.X.q 6X0X8X2X2X2X8XqX(.6.P rXrXrXrXrXrXrXrXrXrXrXrXrXrXrX",
"rXrXrXrXrXrXrXrXrXrXrXrXrXrXrXrXrXw 5.&.p.p.t.oXqXqX0X8X8X8X8XqX7XT 2 rXrXrXrXrXrXrXrXrXrXrXrXrXrXrX",
"rXrXrXrXrXrXrXrXrXrXrXrXrXrXrXrXrX%  .W K  .1 A.U.W.=XOX-X:X;XR.r rXrXrXrXrXrXrXrXrXrXrXrXrXrXrXrXrX",
"rXrXrXrXrXrXrXrXrXrXrXrXrXrXrX5 ` ' E /.D.$ #   * r + ; m t - 6 rXrXrXrXrXrXrXrXrXrXrXrXrXrXrXrXrXrX",
"rXrXrXrXrXrXrXrXrXrXrXrXrXrXrX:.i.7.5.2.a.U [ 1.+.k.i T.E.' K L :.rXrXrXrXrXrXrXrXrXrXrXrXrXrXrXrXrX",
"rXrXrXrXrXrXrXrXrXrXrXrXrXrXrX<.-.V.B.d.2.| l 1.p.>.3.;.$.i.e F.-.rXrXrXrXrXrXrXrXrXrXrXrXrXrXrXrXrX",
"rXrXrXrXrXrXrXrXrXrXrXrXrXrX> $X^.(.9X4Xs l qX[. .p.,.! p.X.h 5X@X# rXrXrXrXrXrXrXrXrXrXrXrXrXrXrXrX",
"rXrXrXrXrXrXrXrXrXrXrXrXrX`.OXOX=X. z.:X`.P.qX$Xj 3.7.F $.x.c Q.wX; rXrXrXrXrXrXrXrXrXrXrXrXrXrXrXrX",
"rXrXrXrXrXrXrXrXrXrXrXrXrXc._.Q.).v rXL.a 0 !.x.T.u T y.e S.$ L.Y.0 rXrXrXrXrXrXrXrXrXrXrXrXrXrXrXrX",
"rXrXrXrXrXrXrXrXrXrXrXrXrXa XXP.[.>XrX    O O X ( n ( 9 s rXu {.=X*XrXrXrXrXrXrXrXrXrXrXrXrXrXrXrXrX",
"rXrXrXrXrXrXrXrXrXrXrXrXrXrXrXn .Xb.,XK.X . = = I.U._.c l o =X{.OX0Xx rXrXrXrXrXrXrXrXrXrXrXrXrXrXrX",
"rXrXrXrXrXrXrXrXrXrXrXrXrXrXrXI w.9.C.wXL.  d qX;XXX>X2X+Xp K.].Q.OXk rXrXrXrXrXrXrXrXrXrXrXrXrXrXrX",
"rXrXrXrXrXrXrXrXrXrXrXrXrXrXrXrX| d.6.h.j   a z.f R..XOXx.o f `.Y.'.u rXrXrXrXrXrXrXrXrXrXrXrXrXrXrX",
"rXrXrXrXrXrXrXrXrXrXrXrXrXrXrXrXrXl Q.g   ).I.    X o X > b Y.eX:X:Xu rXrXrXrXrXrXrXrXrXrXrXrXrXrXrX",
"rXrXrXrXrXrXrXrXrXrXrXrXrXrXrXrXrXrXrX> ).9Xs   rXrX  X l 4X[.x.].wXx rXrXrXrXrXrXrXrXrXrXrXrXrXrXrX",
"rXrXrXrXrXrXrXrXrXrXrXrXrXrXrXrXrXrX@ A.4Xv.1 rXrXrXrX# } n.#X7 j.7X: rXrXrXrXrXrXrXrXrXrXrXrXrXrXrX",
"rXrXrXrXrXrXrXrXrXrXrXrXrXrXrXrXrXrX3.E.a.$.@ rXrXrXrXrX' u.@.e.o.c rXrXrXrXrXrXrXrXrXrXrXrXrXrXrXrX",
"rXrXrXrXrXrXrXrXrXrXrXrXrXrXrXrXrXrX9.5.9.l.& rXrXrXrXrXJ.v.q.9.rXrXrXrXrXrXrXrXrXrXrXrXrXrXrXrXrXrX",
"rXrXrXrXrXrXrXrXrXrXrXrXrXrXrXrXrXrX` s.T.J.rXrXrXrXrXrX: (.k.g rXrXrXrXrXrXrXrXrXrXrXrXrXrXrXrXrXrX",
"rXrXrXrXrXrXrXrXrXrXrXrXrXrXrXrXrXd ^.S.E.rXrXrXrXrXrXrXrXP.$X$XP.rXrXrXrXrXrXrXrXrXrXrXrXrXrXrXrXrX",
"rXrXrXrXrXrXrXrXrXrXrXrXrXrX. o O d ).=X_.rXrXrXrXrXrXrXrXv ;Xf = o . rXrXrXrXrXrXrXrXrXrXrXrXrXrXrX",
"rXrXrXrXrXrXrXrXrXrXrXrXrX).:XOX`.u . {.E.rXrXrXrXrXrXrXrXp *Xo = I._.*X_.rXrXrXrXrXrXrXrXrXrXrXrXrX",
"rXrXrXrXrXrXrXrXrXrXrXrXk qXqXqXqX+XW.qXQ.: rXrXrXrXrXrXrXU.qX:XQ.qXqXqXqX_.rXrXrXrXrXrXrXrXrXrXrXrX",
"rXrXrXrXrXrXrXrXrXrXrXrX0 Z.z z k a k b v rXrXrXrXrXrXrXrXk z.x f K.K.K.).b rXrXrXrXrXrXrXrXrXrXrXrX",
"rXrXrXrXrXrXrXrXrXrXrXrXrXrXrXrXrXrXrXrXrXrXrXrXrXrXrXrXrXrXrXrXrXrXrXrXrXrXrXrXrXrXrXrXrXrXrXrXrXrX",
"rXrXrXrXrXrXrXrXrXrXrXrXrXrXrXrXrXrXrXrXrXrXrXrXrXrXrXrXrXrXrXrXrXrXrXrXrXrXrXrXrXrXrXrXrXrXrXrXrXrX"
};
