/* XPM */
static char *result[] = {
/* columns rows colors chars-per-pixel */
"50 50 224 2 ",
"   c #000000",
".  c #090908",
"X  c #0E0F12",
"o  c #181818",
"O  c #151107",
"+  c #221B00",
"@  c #362A04",
"#  c #3A3403",
"$  c #222019",
"%  c #342B11",
"&  c #000022",
"*  c #1F212E",
"=  c #252423",
"-  c #2B2927",
";  c #34332D",
":  c #272836",
">  c #343331",
",  c #3C3B39",
"<  c #7D0000",
"1  c #730000",
"2  c #631015",
"3  c #4A3B03",
"4  c #4C3600",
"5  c #440021",
"6  c #413D2A",
"7  c #464702",
"8  c #564905",
"9  c #735800",
"0  c #6B570C",
"q  c #766906",
"w  c #706B10",
"e  c #595529",
"r  c #44433D",
"t  c #5E593F",
"y  c #7A4B2C",
"u  c #5C613D",
"i  c #7D6738",
"p  c #786F32",
"a  c #232945",
"s  c #32344C",
"d  c #641044",
"f  c #3E4464",
"g  c #484746",
"h  c #54534D",
"j  c #424458",
"k  c #5A5954",
"l  c #555559",
"z  c #504E49",
"x  c #676457",
"c  c #6B7252",
"v  c #5B5F71",
"b  c #5F6479",
"n  c #6C6B65",
"m  c #676764",
"M  c #716E64",
"N  c #777469",
"B  c #686A7F",
"V  c #767574",
"C  c #7C7B73",
"Z  c #787779",
"A  c #736977",
"S  c #6E5057",
"D  c #830000",
"F  c #990B11",
"G  c #AF0000",
"H  c #992A00",
"J  c #9F3800",
"K  c #A43B00",
"L  c #DA0000",
"P  c #E40100",
"I  c #C62E00",
"U  c #E03B00",
"Y  c #8A6C00",
"T  c #8B7A08",
"R  c #927400",
"E  c #836E16",
"W  c #877812",
"Q  c #937109",
"!  c #B07500",
"~  c #B87E00",
"^  c #B57C00",
"/  c #A07F00",
"(  c #8F5724",
")  c #877434",
"_  c #826F2D",
"`  c #A37D36",
"'  c #D07200",
"]  c #922949",
"[  c #9F534F",
"{  c #8C7C46",
"}  c #827B5D",
"|  c #827F76",
" . c #827C6A",
".. c #A1766D",
"X. c #C54654",
"o. c #E34D6B",
"O. c #728438",
"+. c #908F11",
"@. c #A88602",
"#. c #AA9600",
"$. c #B69C05",
"%. c #BA8900",
"&. c #BEAB05",
"*. c #B1AC16",
"=. c #978837",
"-. c #A79537",
";. c #A9942C",
":. c #ABA83D",
">. c #C69A01",
",. c #D89400",
"<. c #F48D00",
"1. c #C7A801",
"2. c #D7AB00",
"3. c #C9B704",
"4. c #D7B902",
"5. c #CABA1D",
"6. c #E9B800",
"7. c #F9B900",
"8. c #F0A700",
"9. c #D1BE34",
"0. c #CDC501",
"q. c #DDC300",
"w. c #D1C400",
"e. c #CBD401",
"r. c #DBD013",
"t. c #E3C800",
"y. c #FDC500",
"u. c #FECC00",
"i. c #F4CA04",
"p. c #FED500",
"a. c #FEDD00",
"s. c #F3D604",
"d. c #EBCE0C",
"f. c #EDE800",
"g. c #FEE300",
"h. c #FEEB00",
"j. c #F3E300",
"k. c #FFF300",
"l. c #FFFE00",
"z. c #E8FC00",
"x. c #9B8D54",
"c. c #939246",
"v. c #A79648",
"b. c #A29153",
"n. c #A5A141",
"m. c #B7A346",
"M. c #89867A",
"N. c #969373",
"B. c #A89A6C",
"V. c #B6A369",
"C. c #B6AD74",
"Z. c #C18D5D",
"A. c #C5BB50",
"S. c #CAB562",
"D. c #D1C472",
"F. c #5D5D84",
"G. c #6F738A",
"H. c #7D7D8D",
"J. c #737A94",
"K. c #68688E",
"L. c #5E67BF",
"P. c #7A89C7",
"I. c #8A8887",
"U. c #928F87",
"Y. c #95928A",
"T. c #9B988B",
"R. c #8C8A95",
"E. c #999997",
"W. c #A69D8B",
"Q. c #A19E94",
"!. c #A5A194",
"~. c #AAA79A",
"^. c #B5B490",
"/. c #9699AA",
"(. c #9899BC",
"). c #8A89A4",
"_. c #ABAAA5",
"`. c #B5B2A4",
"'. c #BDBAAD",
"]. c #B8B4A9",
"[. c #BBB9B7",
"{. c #ABADAE",
"}. c #C78292",
"|. c #C1B985",
" X c #F48FA3",
".X c #C1BFB7",
"XX c #D1C399",
"oX c #C9C4AA",
"OX c #DBCAA7",
"+X c #C4C2BB",
"@X c #C9C6B7",
"#X c #D1CDBE",
"$X c #C3D9BE",
"%X c #9EA0CB",
"&X c #B5B6C3",
"*X c #B7B6DB",
"=X c #AEB1C3",
"-X c #B8BEEB",
";X c #BFC1CA",
":X c #B9C2F4",
">X c #C3C3C3",
",X c #CAC9C8",
"<X c #D9D5CA",
"1X c #D2D1C9",
"2X c #C9CCD7",
"3X c #DAD9D5",
"4X c #D6D6DA",
"5X c #CCD3CE",
"6X c #E2DFD1",
"7X c #E5E2D5",
"8X c #E9E6D9",
"9X c #D5D7F2",
"0X c #DDE3FF",
"qX c #EAE9E4",
"wX c #F2EEE8",
"eX c #F3F2EB",
"rX c #F9F8EA",
"tX c #E5EAFC",
"yX c #FEFDF5",
"uX c #F6F9FF",
"iX c #FFFFFF",
"pX c #F6F6F5",
"aX c #E9FEFF",
"sX c None",
/* pixels */
"sXsXsXsXsXsXsXsXsXsXsXsXsXsXsXsXsXsXsXsXsXsXsXsXsXsXsXsXsXsXsXsXsXsXsXsXsXsXsXsXsXsXsXsXsXsXsXsXsXsX",
"sXsXsXsXsXsXsXsXsXsXsXsXsXsXsXsXsXsXsXsXsXsXsXsXsXsXsXsXsXsXsXsXsXsXsXsXsXsXsXsXsXsXsXsXsXsXsXsXsXsX",
"sXsXsXsXsXsXsXsXsXsXsXsXsXsXsXsXsXsXsXsXsXsXsXsXsXsXsXsXsXsXsXsXsXsXsXsXsXsXsXsXsXsXsXsXsXsXsXsXsXsX",
"sXsXsXsXsXsXsXsXsXsXsXsXsXsXsXsXsXsXsXsXsXsXsXk Z m g X sXsXsXsXsXsXsXsXsXsXsXsXsXsXsXsXsXsXsXsXsXsX",
"sXsXsXsXsXsXsXsXsXsXsXsXsXsXsXsXsXsXsXsXsXh rXwX,XeXiXpX&Xv sXsXsXsXsXsXsXsXsXsXsXsXsXsXsXsXsXsXsXsX",
"sXsXsXsXsXsXsXsXsXsXsXsXsXsXsXsXsXsXsXsXz iX8XY.oXiX{.W.oXoX6 sXsXsXsXsXsXsXsXsXsXsXsXsXsXsXsXsXsXsX",
"sXsXsXsXsXsXsXsXsXsXsXsXsXsXsXsXsXsXsXsXN @XN Y.pXI.R 3.>.1.s.R sXsXsXsXsXsXsXsXsXsXsXsXsXsXsXsXsXsX",
"sXsXsXsXsXsXsXsXsXsXsXsXsXsXsXsXsXsXsXV >X_.h `.tXE g.' I U 1.k.@ sXsXsXsXsXsXsXsXsXsXsXsXsXsXsXsXsX",
"sXsXsXsXsXsXsXsXsXsXsXsXsXsXsXsXsXsXY.iXiXiX>XC 2X;.a.H < P ! q.B.a sXsXsXsXsXsXsXsXsXsXsXsXsXsXsXsX",
"sXsXsXsXsXsXsXsXsXsXsXsXsXsXsXsXsXg iXOX-.oXiX_.J.m.p.J < P ~ 1.D./.sXsXsXsXsXsXsXsXsXsXsXsXsXsXsXsX",
"sXsXsXsXsXsXsXsXsXsXsXsXsXsXsXsXsX>XiXOX>.|.iXiXJ.w g.K < P ~ 4.Q S.a sXsXsXsXsXsXsXsXsXsXsXsXsXsXsX",
"sXsXsXsXsXsXsXsXsXsXsXsXsXsXsXsXsXx ^.T.A I.&X0XP.3 h.K < P %.3.{ *X: sXsXsXsXsXsXsXsXsXsXsXsXsXsXsX",
"sXsXsXsXsXsXsXsXsXsXsXsXsXsXsXsX= 3 1.0.1.#.@.Q p @.h.J D P ~ t.;.-.7 sXsXsXsXsXsXsXsXsXsXsXsXsXsXsX",
"sXsXsXsXsXsXsXsXsXsXsXsXsXsXsX- uXx.6.l.l.l.l.l.u.p.p.J < P ! q.p.l.O.sXsXsXsXsXsXsXsXsXsXsXsXsXsXsX",
"sXsXsXsXsXsXsXsXsXsXsXsXsXsXsX!.iXv.7.g.k.g.l.l.k.u.p.H 1 P ! q.p.k.q sXsXsXsXsXsXsXsXsXsXsXsXsXsXsX",
"sXsXsXsXsXsXsXsXsXsXsXsXsXsXsX~.G.c.y.u.l.l.l.l.l.a.s.K G L @.t.a.l.9 sXsXsXsXsXsXsXsXsXsXsXsXsXsXsX",
"sXsXsXsXsXsXsXsXsXsXsXsXsXsXsXM.  w p.7.1.*.$.e.z.g.i.2.<.,.1.i.w.3.0 sXsXsXsXsXsXsXsXsXsXsXsXsXsXsX",
"sXsXsXsXsXsXsXsXsXsXsXsXsXsXsXM.  8 g.6.c d }.'.y c.-.:.n.n.v.` ..i 4 sXsXsXsXsXsXsXsXsXsXsXsXsXsXsX",
"sXsXsXsXsXsXsXsXsXsXsXsXsXsXsXT.  8 a.p.0 D X. XX.=XtXtXtXtXaX] o.Z.# sXsXsXsXsXsXsXsXsXsXsXsXsXsXsX",
"sXsXsXsXsXsXsXsXsXsXsXsXsXsXsX~./.{ u.p.9 $ F G H ;XpXpXyXiXiX[ D ( 7 sXsXsXsXsXsXsXsXsXsXsXsXsXsXsX",
"sXsXsXsXsXsXsXsXsXsXsXsXsXsXsXk iXb.7.g.t.*.i 2 ~.eXwXwXwXeXpXwXS 1.Y sXsXsXsXsXsXsXsXsXsXsXsXsXsXsX",
"sXsXsXsXsXsXsXsXsXsXsXsXsXsXsXsX/.V.y.k.l.l.e.c uXwXwX8X7X7X7XiX5Xy.Y sXsXsXsXsXsXsXsXsXsXsXsXsXsXsX",
"sXsXsXsXsXsXsXsXsXsXsXsXsXsXsXsXsX% q.%.k.l.&.1XyXyXiXrXyXyXyXiX2X9 @ sXsXsXsXsXsXsXsXsXsXsXsXsXsXsX",
"sXsXsXsXsXsXsXsXsXsXsXsXsXsXsXsXsX8 #.i w #.% B M.E.+X+X>X5X,XN.sXsXsXsXsXsXsXsXsXsXsXsXsXsXsXsXsXsX",
"sXsXsXsXsXsXsXsXsXsXsXsXsXsXsX8 R +.c.(.L.$ +   & :   o k s = 9 sXsXsXsXsXsXsXsXsXsXsXsXsXsXsXsXsXsX",
"sXsXsXsXsXsXsXsXsXsXsXsXsXsXsX6.k.6.d.0.A.E $.&.=.M.j /.Q._ w / 2.sXsXsXsXsXsXsXsXsXsXsXsXsXsXsXsXsX",
"sXsXsXsXsXsXsXsXsXsXsXsXsXsXsX1.i.6.6.f.g.>.e f.l.2.5.:.@.l.;.K.i.sXsXsXsXsXsXsXsXsXsXsXsXsXsXsXsXsX",
"sXsXsXsXsXsXsXsXsXsXsXsXsXsXsX!.} 1XtX3Xt x 0XN.f.l.7.8.l.e.j :XD.4 sXsXsXsXsXsXsXsXsXsXsXsXsXsXsXsX",
"sXsXsXsXsXsXsXsXsXsXsXsXsXm N 2X,Xh .X<XR.M.yX:Xe g.8.G 6.p F.,XiX6 sXsXsXsXsXsXsXsXsXsXsXsXsXsXsXsX",
"sXsXsXsXsXsXsXsXsXsXsXsXsX'.3X[.,X- 6 3X!.N yX`.(.v.u.<.*./., V ;XsXsXsXsXsXsXsXsXsXsXsXsXsXsXsXsXsX",
"sXsXsXsXsXsXsXsXsXsXsXsXsXx E.T.Q.!.sXsXo - M n Y.j 9 f.u l $ E.E.h sXsXsXsXsXsXsXsXsXsXsXsXsXsXsXsX",
"sXsXsXsXsXsXsXsXsXsXsXsXsXh oXU.=X*X,     = X   n I.R.e l sXn ;X3XeX- sXsXsXsXsXsXsXsXsXsXsXsXsXsXsX",
"sXsXsXsXsXsXsXsXsXsXsXsXsXsXsXZ @XB.4X_.. . : g Y.M.{.H.n o .X`.+XyXC sXsXsXsXsXsXsXsXsXsXsXsXsXsXsX",
"sXsXsXsXsXsXsXsXsXsXsXsXsXsXsXW g.j.D.tXM.  x iX7XoX3X6X7Xk M ].Q.`.x sXsXsXsXsXsXsXsXsXsXsXsXsXsXsX",
"sXsXsXsXsXsXsXsXsXsXsXsXsXsXsXsX2.g.6.c.G.  g Y.N `.<X<XQ.. n {.U.[.g sXsXsXsXsXsXsXsXsXsXsXsXsXsXsX",
"sXsXsXsXsXsXsXsXsXsXsXsXsXsXsXsXsXW.|.b.  C I.    = ; - o z I.qX3X+X> sXsXsXsXsXsXsXsXsXsXsXsXsXsXsX",
"sXsXsXsXsXsXsXsXsXsXsXsXsXsXsXsXsXsXsXj m yXI.          b qX[.,X[.yXC sXsXsXsXsXsXsXsXsXsXsXsXsXsXsX",
"sXsXsXsXsXsXsXsXsXsXsXsXsXsXsXsXsXsXsXsXuX{.;   sXsXsX# _ *X*X# C.qXg sXsXsXsXsXsXsXsXsXsXsXsXsXsXsX",
"sXsXsXsXsXsXsXsXsXsXsXsXsXsXsXsXsXsXq %X_.$.8 sXsXsXsX+ 1.r.).$.A.9X* sXsXsXsXsXsXsXsXsXsXsXsXsXsXsX",
"sXsXsXsXsXsXsXsXsXsXsXsXsXsXsXsXsXsXr.V.k.1.  sXsXsXsXsXc f.2.a.w : sXsXsXsXsXsXsXsXsXsXsXsXsXsXsXsX",
"sXsXsXsXsXsXsXsXsXsXsXsXsXsXsXsXsXsXw.h.3.E.: sXsXsXsXsX).R.d.t.sXsXsXsXsXsXsXsXsXsXsXsXsXsXsXsXsXsX",
"sXsXsXsXsXsXsXsXsXsXsXsXsXsXsXsXsXsXW 9.).H.sXsXsXsXsXsXsX{.M.M s sXsXsXsXsXsXsXsXsXsXsXsXsXsXsXsXsX",
"sXsXsXsXsXsXsXsXsXsXsXsXsXsXsXsXsXz R.B !.sXsXsXsXsXsXsXsXM.&X[.T.sXsXsXsXsXsXsXsXsXsXsXsXsXsXsXsXsX",
"sXsXsXsXsXsXsXsXsXsXsXsXsXsXsXsX. k [.3X_.sXsXsXsXsXsXsXsXV 1XM.; X sXsXsXsXsXsXsXsXsXsXsXsXsXsXsXsX",
"sXsXsXsXsXsXsXsXsXsXsXsXsXN &X_.Y.; X .X+XsXsXsXsXsXsXsXsXm +X  o M U.R.Z sXsXsXsXsXsXsXsXsXsXsXsXsX",
"sXsXsXsXsXsXsXsXsXsXsXsX, iXiXiXyX~.k <XM sXsXsXsXsXsXsXsXx 8XE.n 8XrXiXiXn sXsXsXsXsXsXsXsXsXsXsXsX",
"sXsXsXsXsXsXsXsXsXsXsXsXV iX7X8X8X'.1XrX.X; sXsXsXsXsXsXsXW.6XqX.XyXyXyXiX>XsXsXsXsXsXsXsXsXsXsXsXsX",
"sXsXsXsXsXsXsXsXsXsXsXsXsXsXsXsXsXsXsXsXsXsXsXsXsXsXsXsXsXsXsXsXsXsXsXsXg ; sXsXsXsXsXsXsXsXsXsXsXsX",
"sXsXsXsXsXsXsXsXsXsXsXsXsXsXsXsXsXsXsXsXsXsXsXsXsXsXsXsXsXsXsXsXsXsXsXsXsXsXsXsXsXsXsXsXsXsXsXsXsXsX",
"sXsXsXsXsXsXsXsXsXsXsXsXsXsXsXsXsXsXsXsXsXsXsXsXsXsXsXsXsXsXsXsXsXsXsXsXsXsXsXsXsXsXsXsXsXsXsXsXsXsX"
};
