/* XPM */
static char *result[] = {
/* columns rows colors chars-per-pixel */
"50 50 72 1 ",
"  c #000000",
". c #0A0906",
"X c #02030B",
"o c #0E0D0A",
"O c #10100D",
"+ c #050610",
"@ c #0C0E15",
"# c #0D0F19",
"$ c #0F111D",
"% c #151514",
"& c #1A1916",
"* c #11131C",
"= c #1F1E1C",
"- c #22211E",
"; c #141622",
": c #171927",
"> c #1B1C25",
", c #1C1E29",
"< c #2A2926",
"1 c #20222D",
"2 c #2A2A29",
"3 c #30302D",
"4 c #232633",
"5 c #262936",
"6 c #2B2E3E",
"7 c #2C303F",
"8 c #353532",
"9 c #383735",
"0 c #3C3B38",
"q c #41413E",
"w c #2F3344",
"e c #313546",
"r c #323748",
"t c #373B4E",
"y c #383D4F",
"u c #373D50",
"i c #383D51",
"p c #3C4256",
"a c #3E4459",
"s c #464643",
"d c #4C4B4A",
"f c #52514E",
"g c #41465C",
"h c #42485E",
"j c #545351",
"k c #5A5A57",
"l c #5B5B5B",
"z c #62615F",
"x c #454B63",
"c c #484E66",
"v c #656564",
"b c #6C6C6C",
"n c #71716E",
"m c #747474",
"M c #7C7C7C",
"N c #848484",
"B c #8C8C8C",
"V c #949494",
"C c #9A9A9A",
"Z c #A4A4A4",
"A c #ACACAC",
"S c #AFAFB0",
"D c #B4B4B4",
"F c #BBBBBB",
"G c #C3C3C3",
"H c #CBCBCB",
"J c #D3D3D3",
"K c #DCDCDC",
"L c #E4E4E4",
"P c #EBEBEB",
"I c #F3F3F3",
"U c None",
/* pixels */
"UUUUUUUUUUUUUUUUUUUUUUUUmUUUUUUUUUUUUUUUUUUUUUUUUU",
"UUUUUUUUUUUUUUUUUUUUUUvAHUUUUUUUUUUUUUUUUUUUUUUUUU",
"UUUUUUUUUUUUUUUUBUUUUNFLFUUUUMCAHmUUUUUUUUUUUUUUUU",
"UUUUUUUUUUUUUUUDKUUUmGFKDUUnAGGPAUUUUUUUUUUUUUUUUU",
"UUUUUUUUUUUUUUBHKNUUDFFLFUUGGDHKbUUUUUUUUUUUUUUUUU",
"UUUUUUUUUUUUUUFGLAUNGAGLFUZGAGLFUUUMBNMUUUUUUUUUUU",
"UUUUUUUUUmUUUNFFJKUmHAFHFCDDDHLCUMDFFFJJMUUUUUUUUU",
"UUUUUUUUbKvUUVGDHKDCFDDDDGFDDFHVBHFAFJPZUUUUUUUUUU",
"UUUUUUUUBPHUUCGDFFGGFDDAAAADDDDDFDDGJPNUUUUUUUUUUU",
"UUUUUUUUAGLFUmGDDDDAAZCVVBVCZAADDDDHPAUUUUUUUUUUUU",
"UUUUUUUUAFHPANDFDAZVMNNNNNNNNMVZADDDHvUVVBNUUUUUUU",
"UUUUUUUUDDGJJFDDZVMMBCCAAZCCCVMMVZDFAZGGGFFAMUUUUU",
"UUUUUUUUAFDFDFAZNMVCAAZNnUMCZACVMNZAFFDSDFFKPCUUUU",
"UUUUDUUUCGSADACMNCACCCbUUUVZVVCAZNMVAFDFHJPHCMUUUU",
"UUUUKJNUUAFFDCMNAZVZVUUUUbNCCCCVCABMVADDJKAUUUUUUU",
"UUUbFKLFMVGDZMNAVVCVvMADDAAAZVCVVVABMCDDGVUUUUUUUU",
"UUUUSFJLKDDZNNACCCVBAAn0229vCDZVCVCSNNZFDVCCNUUUUU",
"UUUUSFDHFDSCMCCVCVZFvO XXXX ojAAVCVCZMVADFGGGANUUU",
"UUUUNHADDFZNBSVCCZA0 ;txerci: <ZAVCVAVMZDDDSDFGvUU",
"UUUUUSHSDSCMCCCCCD8 expa76ppxt -AZVCVCMVADFHHHJJMU",
"UUUUUUZFFANBZVCVDv wxttp67pttht dDCCVABMADFLLJHJZU",
"UAGVMUMDFZMCAVCZC *xtitgeeatitx, VZCCZCNZDFZMUUUUU",
"UBLLLKHDDZNCCCCDv ipitig41gpttpp kZBZCCNCDFBUUUUUU",
"UmDGHJHDSCNCCVCDq capah1  >gappcX8SvBCCNVSFFGBUUUU",
"UUVHAFFDSVNCCCCS3Xr76e5    1r77r#2SUbZZNBADADHAUUU",
"UUUFGDSFDVNCVCCS3Xe66e4    >r77e#2AUUCZNBAFFDDGCUU",
"UUUUZGGDDCNCCCCDq cgpgg*  @pgppcX3DUUBANVADGJHFFbU",
"UUUUUUNFDZNVCCCDl ipttpa1>ppttpg fDUUNZNCDDJLLLKBU",
"UUUUUUVFDAMCACCZC :huutgrrhutth5 BCUUBZNZDDBMZAHFU",
"UCGFGKLFDANBZBNbFd igtup66pitga 8DBCvBCMAFFVUUUUMU",
"UNJKJJHGDSVNCmUUVF& pxpp67pihg .ZZCZCCNBAFDHZUUUUU",
"UUbHFDDDDDZMVAUUUAS& 4aceecg5 oVDVCVAVMZDDAAHVUUUU",
"UUUBDGFFFFAVMACmUUASs  $$*$X 8CDVVCCZNBADDHDFDUUUU",
"UUUUUBAACAFZMNDZBUkVDBs=%%=qNDAVCCVABMZDFJKHDFMUUU",
"UUUUUUUUmGFDCMBAZZBNVADACCZDACCCCVAVMCAGCVHPJFMUUU",
"UUUUUUUNJJDDAVMVACCZCCVCZCCCCCVCVAVmBAFFAUUVKKmUUU",
"UUUUUNDLKJFADAVMBZZCVCCCCCCCCVVZABMBADSSHVUUbHNUUU",
"UUUUVPLGFDDDFFACMMVZACVVCVVVCZZVNMCAFDFDFDUUUUUUUU",
"UUUUUNFGFFGGAADAZBMNVCZZZZZZCVNMBZADFHJGDDUUUUUUUU",
"UUUUUUUNZZAMvFFDDACBMNNNNBNNNNBCZDDFBDPHFDUUUUUUUU",
"UUUUUUUUUUUUVLHDDDDAZZVNNNBBCAADDDDGMUFPGAUUUUUUUU",
"UUUUUUUUUUUlLKHDDFFDDDSAAAAADDFFDFDFAUUHLCUUUUUUUU",
"UUUUUUUUUUmLKGSDGABGDDDDGFDDDFZSKHDGZUUbPNUUUUUUUU",
"UUUUUUUUUmJKGFGGCUNLHDDFADGFDGNkKKFGBUUUMUUUUUUUUU",
"UUUUUUUUUUMNBVBmUUZLHAGAdDLHAGBUZLFGmUUUUUUUUUUUUU",
"UUUUUUUUUUUUUUUUUUJKDFHmUALGDGMUMKJCUUUUUUUUUUUUUU",
"UUUUUUUUUUUUUUUUUBIGGFNUUAKFHVUUUJGUUUUUUUUUUUUUUU",
"UUUUUUUUUUUUUUUUUHFAVlUUUALGZUUUUCMUUUUUUUUUUUUUUU",
"UUUUUUUUUUUUUUUUUUUUUUUUUGHBUUUUUUUUUUUUUUUUUUUUUU",
"UUUUUUUUUUUUUUUUUUUUUUUUUBUUUUUUUUUUUUUUUUUUUUUUUU"
};
